<svg width="99" height="96" viewBox="0 0 99 96" fill="none" xmlns="http://www.w3.org/2000/svg">
<path d="M69.2802 0C61.9145 0 54.9647 2.9033 49.5 8.19354C44.055 2.9033 37.1052 0 29.7395 0C13.3452 0 0 14.4946 0 32.3011C0 65.2043 46.5497 94.4946 48.5297 95.7204C48.8267 95.914 49.1633 96 49.5 96C49.8366 96 50.193 95.914 50.49 95.7204C52.47 94.4946 99 65.2043 99 32.3011C99 14.4946 85.6745 0 69.2802 0ZM66.5081 41.8495C65.7359 42.6882 64.4885 42.6882 63.7164 41.8495L52.6878 29.8925V63.656C52.6878 68 48.4307 71.3979 43.0055 71.3979C37.5605 71.3979 33.3035 68 33.3035 63.656C33.3035 59.3118 37.5605 55.914 43.0055 55.914C45.1638 55.914 47.124 56.4731 48.7278 57.3978V24.6883C48.7278 23.828 49.203 23.0538 49.9554 22.7097C50.688 22.3872 51.5393 22.5591 52.1135 23.1829L66.5081 38.8172C67.2804 39.6559 67.2804 41.0108 66.5081 41.8495Z" fill="#00C950"/>
</svg>
