<svg width="113" height="115" viewBox="0 0 113 115" fill="none" xmlns="http://www.w3.org/2000/svg">
<path d="M16.9033 87.975C15.046 87.975 13.2305 87.4142 11.6862 86.3634C10.1419 85.3127 8.93827 83.8192 8.22752 82.0719C7.51676 80.3246 7.3308 78.4019 7.69314 76.5469C8.05548 74.692 8.94985 72.9881 10.2631 71.6508C11.5765 70.3134 13.2497 69.4027 15.0713 69.0337C16.8929 68.6648 18.781 68.8541 20.497 69.5779C22.2129 70.3017 23.6795 71.5273 24.7113 73.0999C25.7432 74.6724 26.2939 76.5212 26.2939 78.4125C26.291 80.9477 25.3006 83.3782 23.5402 85.1709C21.7798 86.9635 19.393 87.972 16.9033 87.975ZM16.9033 72.675C15.7889 72.675 14.6996 73.0115 13.773 73.6419C12.8465 74.2724 12.1243 75.1685 11.6978 76.2169C11.2714 77.2652 11.1598 78.4189 11.3772 79.5318C11.5946 80.6448 12.1312 81.6671 12.9192 82.4695C13.7072 83.2719 14.7112 83.8184 15.8041 84.0398C16.8971 84.2611 18.03 84.1475 19.0595 83.7133C20.0891 83.279 20.969 82.5436 21.5881 81.6001C22.2072 80.6566 22.5377 79.5473 22.5377 78.4125C22.5377 76.8908 21.9441 75.4315 20.8874 74.3555C19.8308 73.2795 18.3977 72.675 16.9033 72.675Z" fill="#00C950"/>
<path d="M23.2681 99.9721C27.8263 93.6494 33.8063 84.2514 33.8063 78.4125C33.8063 73.8475 32.0254 69.4694 28.8554 66.2414C25.6855 63.0135 21.3861 61.2 16.9031 61.2C12.4201 61.2 8.12076 63.0135 4.95081 66.2414C1.78086 69.4694 0 73.8475 0 78.4125C0 84.2514 5.97995 93.6494 10.5382 99.9721C5.13479 100.879 0 103.103 0 107.1C0 112.122 8.50227 114.75 16.9031 114.75C25.304 114.75 33.8063 112.122 33.8063 107.1C33.8063 103.103 28.6715 100.879 23.2681 99.9721ZM16.9031 65.025C20.3887 65.029 23.7303 66.4408 26.195 68.9506C28.6596 71.4603 30.046 74.8632 30.05 78.4125C30.05 84.1156 21.5778 96.1605 16.9031 102.154C12.2285 96.1605 3.75625 84.1156 3.75625 78.4125C3.76023 74.8632 5.14662 71.4603 7.61127 68.9506C10.0759 66.4408 13.4176 65.029 16.9031 65.025ZM16.9031 110.925C8.36329 110.925 3.75625 108.211 3.75625 107.1C3.75625 106.297 6.59973 104.153 13.1469 103.493C14.2738 104.962 15.1302 106.019 15.4532 106.413C15.6295 106.629 15.85 106.802 16.0993 106.921C16.3485 107.039 16.6204 107.101 16.8956 107.101C17.1708 107.101 17.4427 107.039 17.6919 106.921C17.9412 106.802 18.1618 106.629 18.338 106.413C18.6611 106.019 19.5156 104.962 20.6444 103.493C27.199 104.153 30.035 106.297 30.035 107.1C30.05 108.211 25.443 110.925 16.9031 110.925Z" fill="#00C950"/>
<path d="M95.7842 26.775C93.9269 26.775 92.1113 26.2142 90.567 25.1634C89.0228 24.1127 87.8191 22.6192 87.1084 20.8719C86.3976 19.1246 86.2117 17.2019 86.574 15.3469C86.9363 13.492 87.8307 11.7881 89.144 10.4508C90.4573 9.11345 92.1306 8.20271 93.9522 7.83374C95.7738 7.46477 97.6619 7.65414 99.3778 8.3779C101.094 9.10166 102.56 10.3273 103.592 11.8999C104.624 13.4724 105.175 15.3212 105.175 17.2125C105.172 19.7477 104.181 22.1782 102.421 23.9708C100.661 25.7635 98.2738 26.772 95.7842 26.775ZM95.7842 11.475C94.6698 11.475 93.5805 11.8115 92.6539 12.4419C91.7273 13.0724 91.0052 13.9685 90.5787 15.0169C90.1522 16.0652 90.0407 17.2189 90.2581 18.3318C90.4755 19.4448 91.0121 20.4671 91.8001 21.2695C92.5881 22.0719 93.592 22.6184 94.685 22.8398C95.7779 23.0611 96.9108 22.9475 97.9404 22.5133C98.9699 22.079 99.8499 21.3436 100.469 20.4001C101.088 19.4566 101.419 18.3473 101.419 17.2125C101.419 15.6908 100.825 14.2315 99.7683 13.1555C98.7116 12.0795 97.2785 11.475 95.7842 11.475Z" fill="#00C950"/>
<path d="M102.149 38.7721C106.708 32.4494 112.688 23.0514 112.688 17.2125C112.688 12.6475 110.907 8.26939 107.737 5.04142C104.567 1.81345 100.267 0 95.7845 0C91.3015 0 87.0021 1.81345 83.8322 5.04142C80.6622 8.26939 78.8813 12.6475 78.8813 17.2125C78.8813 23.0514 84.8613 32.4494 89.4195 38.7721C84.0161 39.6806 78.8813 41.9048 78.8813 45.9C78.8813 50.9222 87.3836 53.55 95.7845 53.55C104.185 53.55 112.688 50.9222 112.688 45.9C112.688 41.9048 107.553 39.6806 102.149 38.7721ZM95.7845 3.825C99.27 3.82905 102.612 5.24082 105.076 7.75058C107.541 10.2603 108.927 13.6632 108.931 17.2125C108.931 22.9156 100.457 34.9605 95.7845 40.9543C91.1117 34.9605 82.6376 22.9156 82.6376 17.2125C82.6416 13.6632 84.028 10.2603 86.4926 7.75058C88.9573 5.24082 92.2989 3.82905 95.7845 3.825ZM95.7845 49.725C87.2446 49.725 82.6376 47.0112 82.6376 45.9C82.6376 45.0968 85.4811 42.9528 92.0282 42.293C93.1551 43.7618 94.0115 44.8194 94.3346 45.2134C94.5108 45.4286 94.7314 45.6018 94.9806 45.7206C95.2299 45.8395 95.5017 45.9011 95.777 45.9011C96.0522 45.9011 96.324 45.8395 96.5733 45.7206C96.8225 45.6018 97.0431 45.4286 97.2194 45.2134C97.5424 44.8194 98.3969 43.7618 99.5257 42.293C106.08 42.9528 108.916 45.0968 108.916 45.9C108.931 47.0112 104.324 49.725 95.7845 49.725Z" fill="#00C950"/>
<path d="M92.0282 103.275H37.5626C37.0645 103.275 36.5868 103.074 36.2346 102.715C35.8823 102.356 35.6845 101.87 35.6845 101.362C35.6845 100.855 35.8823 100.369 36.2346 100.01C36.5868 99.6515 37.0645 99.45 37.5626 99.45H92.0282C96.5112 99.45 100.811 97.6365 103.981 94.4086C107.15 91.1806 108.931 86.8025 108.931 82.2375C108.931 77.6725 107.15 73.2944 103.981 70.0664C100.811 66.8385 96.5112 65.025 92.0282 65.025H43.197C37.7178 65.025 32.463 62.8086 28.5886 58.8633C24.7142 54.918 22.5376 49.567 22.5376 43.9875C22.5376 38.408 24.7142 33.057 28.5886 29.1117C32.463 25.1664 37.7178 22.95 43.197 22.95H75.1251C75.6232 22.95 76.1009 23.1515 76.4531 23.5102C76.8054 23.8688 77.0032 24.3553 77.0032 24.8625C77.0032 25.3697 76.8054 25.8562 76.4531 26.2148C76.1009 26.5735 75.6232 26.775 75.1251 26.775H43.197C38.714 26.775 34.4146 28.5885 31.2447 31.8164C28.0747 35.0444 26.2938 39.4225 26.2938 43.9875C26.2938 48.5525 28.0747 52.9306 31.2447 56.1586C34.4146 59.3865 38.714 61.2 43.197 61.2H92.0282C97.5074 61.2 102.762 63.4164 106.637 67.3617C110.511 71.307 112.688 76.658 112.688 82.2375C112.688 87.817 110.511 93.168 106.637 97.1133C102.762 101.059 97.5074 103.275 92.0282 103.275Z" fill="#00C950"/>
</svg>
