<svg width="90" height="90" viewBox="0 0 90 90" fill="none" xmlns="http://www.w3.org/2000/svg">
<path d="M43.1699 0.0781735C41.9746 0.234483 40.7425 0.236518 39.5383 0.364934C37.3227 0.601204 35.104 1.05825 32.9586 1.65198C22.9531 4.42089 14.1487 10.637 8.15324 19.0734C5.09236 23.3806 2.74144 28.3249 1.45401 33.4504C0.246674 38.257 -0.233469 43.1816 0.106582 48.1251C1.11056 62.7206 9.6641 76.2443 22.3627 83.5817C26.3887 85.9075 30.763 87.6013 35.3085 88.6009C40.4273 89.7263 45.757 89.9241 50.946 89.2448C65.8973 87.2874 79.4378 77.5574 85.7539 63.8631C88.4473 58.0239 89.9201 51.6989 89.997 45.2752C90.1777 30.131 82.3008 15.4509 69.4888 7.2355C65.558 4.71502 61.2705 2.80201 56.7566 1.58496C53.5723 0.726331 50.3046 0.244296 47.0152 0.100988C45.7749 0.0469366 44.4056 -0.0833697 43.1699 0.0781735Z" fill="black"/>
<path d="M44.5625 16.0736V16.116H44.9043L44.5625 16.0736Z" fill="#2B231A"/>
<path d="M41.4436 17.9877C42.1478 17.5656 42.6947 17.7342 43.4517 17.9074C44.2853 18.0982 45.1218 18.3888 45.9725 18.4981C45.9712 18.0387 45.6166 17.0678 45.9127 16.6754C46.1186 16.4033 46.5386 16.7099 46.7416 16.8426C47.3833 17.2626 47.9289 17.9161 48.2177 18.6257C48.727 19.8775 48.3275 20.7871 47.9806 21.986C48.4514 21.5221 48.5783 20.6161 48.5788 19.9869C48.5796 18.2489 47.5204 16.7448 45.8016 16.262C44.5053 15.8978 43.062 16.1885 42.0845 17.1376C41.8323 17.3825 41.5531 17.6461 41.4436 17.9877Z" fill="#FF8500"/>
<path d="M45.417 16.1586V16.201H45.5452L45.417 16.1586Z" fill="#4D3A25"/>
<path d="M45.9723 18.498C44.7615 18.2643 43.4507 17.6599 42.2125 17.6905C41.8832 17.6986 41.5101 17.8333 41.3216 18.119C41.2147 18.2811 41.1668 18.5866 41.3643 18.7031C41.6402 18.8658 42.1685 18.7053 42.4688 18.6754C43.3426 18.5884 44.2372 18.4621 45.0751 18.798C45.3789 18.9197 45.7775 19.1265 45.9283 19.4338C46.068 19.7187 45.8728 20.1907 45.7587 20.4547C45.2763 21.5709 44.0027 21.959 42.9388 22.3121C42.4717 22.4671 41.7838 22.7507 42.4261 23.2296C44.1394 24.5071 46.7563 23.8826 47.8941 22.1561C48.746 20.8639 48.6726 19.0617 47.7907 17.8175C47.4698 17.3644 47.0212 16.95 46.5277 16.6898C46.3496 16.5957 46.0274 16.4412 45.8881 16.6753C45.6254 17.1167 45.9685 18.0113 45.9723 18.498Z" fill="#FF8900"/>
<path d="M41.1872 18.2854C40.562 19.7824 40.6581 21.8915 42.1272 22.9218C42.2026 22.4367 42.9313 22.3317 43.3235 22.1986C44.3284 21.8577 45.3508 21.4459 45.7952 20.4122C45.905 20.1563 46.0481 19.7113 45.9469 19.4339C45.8315 19.1194 45.4085 18.9145 45.118 18.798C44.2618 18.4549 43.3603 18.6005 42.469 18.6719C42.1663 18.6961 41.5756 18.8876 41.329 18.6498C41.2276 18.552 41.2387 18.4061 41.1872 18.2854Z" fill="#FF8500"/>
<path d="M48.5789 19.6041V20.2847H48.622L48.5789 19.6041Z" fill="#4D3A25"/>
<path d="M40.76 19.8167V20.2421H40.8031L40.76 19.8167Z" fill="#2B231A"/>
<path d="M48.536 20.3696V20.5398H48.5788L48.536 20.3696ZM48.4933 20.6674V20.795H48.536L48.4933 20.6674ZM40.8455 20.7099V20.8375H40.8882L40.8455 20.7099Z" fill="#4D3A25"/>
<path d="M59.8154 23.0919V23.1343H60.4136L59.8154 23.0919ZM60.499 23.0919V23.1343H61.0117L60.499 23.0919Z" fill="#363534"/>
<path d="M59.1318 23.1345V23.1769H59.3455L59.1318 23.1345Z" fill="#686566"/>
<path d="M59.3455 23.1345V23.1769H59.5591L59.3455 23.1345Z" fill="#A8A5A5"/>
<path d="M59.371 23.2041C58.6481 23.2985 57.914 23.289 57.192 23.4184C54.6456 23.8747 52.2555 24.8028 50.0996 26.2344C49.2942 26.7691 48.1526 27.4548 47.6061 28.2658C47.498 28.4262 47.6215 28.8166 47.6215 29.0134V31.1401C47.6215 33.8043 47.5788 36.4699 47.5788 39.1368V49.8982V53.0458C47.5788 53.4725 47.4651 54.0888 47.61 54.492C47.724 54.8098 48.0445 55.1279 48.259 55.3853C48.8037 56.0386 49.3758 56.6524 50.0141 57.2164C53.283 60.1054 57.7906 61.0863 62.0627 60.5627C63.9554 60.3304 65.7943 59.8668 67.5315 59.0727C74.5329 55.8723 78.5859 48.5099 78.2539 40.9658C77.9112 33.1732 72.5783 25.9238 64.9253 23.806C63.2047 23.3299 61.159 22.9704 59.371 23.2041Z" fill="white"/>
<path d="M60.4565 23.1345L60.5 23.1765L60.4565 23.1345Z" fill="#686566"/>
<path d="M61.311 23.1345V23.1769H61.5247L61.311 23.1345Z" fill="#A8A5A5"/>
<path d="M61.5247 23.1345V23.1769H61.6956L61.5247 23.1345Z" fill="#686566"/>
<path d="M61.6956 23.1345V23.1769H61.8665L61.6956 23.1345Z" fill="#363534"/>
<path d="M58.6191 23.1769V23.2193H58.7473L58.6191 23.1769Z" fill="#686566"/>
<path d="M58.7473 23.1769V23.2193H58.8755L58.7473 23.1769ZM61.9945 23.1769V23.2193H62.1226L61.9945 23.1769Z" fill="#A8A5A5"/>
<path d="M62.1228 23.1769V23.2193H62.3364L62.1228 23.1769Z" fill="#363534"/>
<path d="M58.2349 23.2195V23.2619H58.4058L58.2349 23.2195ZM62.4506 23.2336L62.4788 23.2478L62.4506 23.2336Z" fill="#A8A5A5"/>
<path d="M62.5073 23.2195V23.2619H62.7209L62.5073 23.2195Z" fill="#363534"/>
<path d="M57.8359 23.2762L57.8646 23.2909L57.8359 23.2762Z" fill="#424140"/>
<path d="M57.8931 23.262V23.3044H58.0212L57.8931 23.262Z" fill="#868383"/>
<path d="M62.7922 23.2762L62.8209 23.2909L62.7922 23.2762Z" fill="#A8A5A5"/>
<path d="M62.8777 23.2762L62.9064 23.2909L62.8777 23.2762Z" fill="#686566"/>
<path d="M57.5369 23.3188L57.5655 23.3335L57.5369 23.3188Z" fill="#424140"/>
<path d="M57.5938 23.3046V23.347H57.7219L57.5938 23.3046Z" fill="#868383"/>
<path d="M63.0913 23.3188L63.12 23.3335L63.0913 23.3188Z" fill="#A8A5A5"/>
<path d="M63.1479 23.3046V23.347H63.2761L63.1479 23.3046Z" fill="#5B5857"/>
<path d="M57.2522 23.3471V23.3895H57.3804L57.2522 23.3471Z" fill="#4E4C4B"/>
<path d="M63.3616 23.3471V23.3895H63.4897L63.3616 23.3471Z" fill="#767474"/>
<path d="M57.0811 23.3897V23.4321H57.2092L57.0811 23.3897Z" fill="#969394"/>
<path d="M63.604 23.4038L63.6327 23.4186L63.604 23.4038Z" fill="#A8A5A5"/>
<path d="M63.6895 23.4038L63.7181 23.4186L63.6895 23.4038Z" fill="#424140"/>
<path d="M56.8247 23.4323V23.4746H56.9529L56.8247 23.4323ZM63.8603 23.4464L63.8885 23.4605L63.8603 23.4464ZM56.6111 23.4746V23.517H56.7393L56.6111 23.4746ZM64.0739 23.4888L64.1021 23.5029L64.0739 23.4888Z" fill="#686566"/>
<path d="M56.4688 23.5314L56.4974 23.5461L56.4688 23.5314Z" fill="#969394"/>
<path d="M64.259 23.5172V23.5596H64.3872L64.259 23.5172Z" fill="#4E4C4B"/>
<path d="M56.2266 23.5598V23.6021H56.3547L56.2266 23.5598Z" fill="#767474"/>
<path d="M64.4299 23.5598V23.6021H64.5581L64.4299 23.5598Z" fill="#5B5857"/>
<path d="M56.0845 23.6165L56.1132 23.6313L56.0845 23.6165Z" fill="#868383"/>
<path d="M64.6294 23.6165L64.6581 23.6313L64.6294 23.6165Z" fill="#686566"/>
<path d="M55.9136 23.659L55.9423 23.6738L55.9136 23.659Z" fill="#868383"/>
<path d="M64.8003 23.659L64.829 23.6738L64.8003 23.659Z" fill="#5B5857"/>
<path d="M43.395 23.7016L43.4237 23.7163L43.395 23.7016Z" fill="#574027"/>
<path d="M55.7424 23.7016L55.7711 23.7163L55.7424 23.7016Z" fill="#868383"/>
<path d="M64.9712 23.7016L64.9999 23.7163L64.9712 23.7016Z" fill="#4E4C4B"/>
<path d="M15.5947 23.7299V23.7724H20.8927C20.4643 23.5935 19.7346 23.7299 19.2691 23.7299H15.5947Z" fill="#75512C"/>
<path d="M55.6145 23.7441L55.6432 23.7589L55.6145 23.7441Z" fill="#BBB8B7"/>
<path d="M65.0994 23.7441L65.1281 23.7589L65.0994 23.7441Z" fill="#767474"/>
<path d="M42.4764 47.8796C42.2305 48.3888 42.1858 49.0425 41.9632 49.581C41.3756 51.003 40.4005 52.2378 39.1438 53.1357C37.4771 54.3267 35.4255 54.727 33.4186 54.8146C29.1938 54.9988 23.6735 54.5696 21.8166 50.0064C20.8757 47.6937 21.1991 45.0047 21.1991 42.5627V29.2066V25.421C21.1991 24.9167 21.3295 24.2085 21.1855 23.7259C21.1076 23.4643 20.1911 23.5919 19.9601 23.5919H16.9693C16.6861 23.5919 16.0693 23.4763 15.8293 23.6357C15.6516 23.7537 15.7303 24.1742 15.7303 24.3576V26.5269V35.5444V43.6686C15.7303 45.5155 15.6125 47.4092 15.8767 49.2408C16.249 51.8205 17.5611 54.1893 19.3692 56.0426C23.7458 60.5284 30.7634 60.9716 36.5803 59.7751C38.102 59.4624 39.6179 58.9316 40.981 58.1864C41.4073 57.9533 42.0713 57.6636 42.3651 57.2672C42.4955 57.0911 42.4336 56.764 42.4336 56.5568V54.7278C42.4336 52.4483 42.4764 50.1625 42.4764 47.8796Z" fill="#FF8500"/>
<path d="M43.6653 23.7724V23.8148H43.7935L43.6653 23.7724Z" fill="#4D3A25"/>
<path d="M55.4434 23.7866L55.472 23.8013L55.4434 23.7866Z" fill="#969394"/>
<path d="M65.2703 23.7866L65.299 23.8013L65.2703 23.7866Z" fill="#4E4C4B"/>
<path d="M45.3176 23.8291L45.3463 23.8439L45.3176 23.8291Z" fill="#5C4329"/>
<path d="M55.2725 23.8291L55.3011 23.8439L55.2725 23.8291Z" fill="#767474"/>
<path d="M44.0925 23.8575V23.8999H44.3916L44.0925 23.8575Z" fill="#4D3A25"/>
<path d="M65.6978 23.9142L65.7264 23.929L65.6978 23.9142Z" fill="#424140"/>
<path d="M54.8882 23.9568L54.9169 23.9715L54.8882 23.9568Z" fill="#BBB8B7"/>
<path d="M65.8257 23.9568L65.8544 23.9715L65.8257 23.9568Z" fill="#424140"/>
<path d="M54.7312 23.9852L54.7747 24.0271L54.7312 23.9852Z" fill="#767474"/>
<path d="M65.9541 23.9993L65.9828 24.0141L65.9541 23.9993Z" fill="#424140"/>
<path d="M54.603 24.0277L54.6458 24.0701L54.603 24.0277ZM54.4749 24.0701L54.5176 24.1125L54.4749 24.0701ZM66.1816 24.0701L66.2243 24.1125L66.1816 24.0701Z" fill="#767474"/>
<path d="M66.4238 24.1694L66.4525 24.1841L66.4238 24.1694Z" fill="#424140"/>
<path d="M54.1331 24.1978L54.1765 24.2397L54.1331 24.1978Z" fill="#969394"/>
<path d="M66.5234 24.1978L66.5661 24.2402L66.5234 24.1978ZM54.0049 24.2402L54.0476 24.2826L54.0049 24.2402Z" fill="#767474"/>
<path d="M66.7371 24.2829L66.7798 24.3253L66.7371 24.2829ZM53.7913 24.3253L53.834 24.3677L53.7913 24.3253Z" fill="#868383"/>
<path d="M66.9507 24.368L66.9942 24.4099L66.9507 24.368Z" fill="#767474"/>
<path d="M53.5776 24.4104L53.6211 24.4524L53.5776 24.4104Z" fill="#868383"/>
<path d="M67.0361 24.4104L67.0796 24.4524L67.0361 24.4104Z" fill="#A8A5A5"/>
<path d="M53.364 24.4955L53.4067 24.5379L53.364 24.4955ZM67.2498 24.4955L67.2925 24.5379L67.2498 24.4955Z" fill="#868383"/>
<path d="M53.2786 24.5381L53.322 24.58L53.2786 24.5381Z" fill="#A8A5A5"/>
<path d="M67.3352 24.5381L67.3787 24.58L67.3352 24.5381Z" fill="#969394"/>
<path d="M53.1504 24.5807L53.1939 24.6226L53.1504 24.5807Z" fill="#686566"/>
<path d="M53.0649 24.6232L53.1084 24.6651L53.0649 24.6232Z" fill="#868383"/>
<path d="M52.9795 24.6658L53.023 24.7077L52.9795 24.6658Z" fill="#969394"/>
<path d="M67.6343 24.6658L67.6777 24.7077L67.6343 24.6658Z" fill="#686566"/>
<path d="M52.894 24.7083L52.9375 24.7503L52.894 24.7083Z" fill="#A8A5A5"/>
<path d="M67.7197 24.7083L67.7632 24.7503L67.7197 24.7083Z" fill="#767474"/>
<path d="M67.8052 24.7507L67.8486 24.7927L67.8052 24.7507Z" fill="#868383"/>
<path d="M52.6804 24.7933L52.7239 24.8352L52.6804 24.7933Z" fill="#686566"/>
<path d="M67.8906 24.7933L67.9341 24.8352L67.8906 24.7933Z" fill="#868383"/>
<path d="M52.595 24.8358L52.6384 24.8778L52.595 24.8358Z" fill="#686566"/>
<path d="M67.9761 24.8358L68.0188 24.8784L67.9761 24.8358ZM52.5095 24.8784L52.5523 24.9209L52.5095 24.8784ZM68.0616 24.8784L68.1043 24.9209L68.0616 24.8784ZM52.4241 24.9209L52.4668 24.9635L52.4241 24.9209ZM68.147 24.9209L68.1897 24.9635L68.147 24.9209ZM52.3386 24.9635L52.3814 25.006L52.3386 24.9635ZM68.2325 24.9635L68.2752 25.006L68.2325 24.9635ZM52.2532 25.006L52.2959 25.0485L52.2532 25.006ZM68.3179 25.006L68.3606 25.0485L68.3179 25.006ZM52.1677 25.0485L52.2105 25.0911L52.1677 25.0485Z" fill="#868383"/>
<path d="M68.4033 25.0486L68.4468 25.0905L68.4033 25.0486Z" fill="#686566"/>
<path d="M52.082 25.091L52.1255 25.1329L52.082 25.091Z" fill="#767474"/>
<path d="M68.4888 25.091L68.5316 25.1335L68.4888 25.091ZM51.9968 25.1335L52.0396 25.1761L51.9968 25.1335ZM51.9114 25.1761L51.9541 25.2186L51.9114 25.1761Z" fill="#686566"/>
<path d="M68.7024 25.2187L68.7459 25.2606L68.7024 25.2187Z" fill="#A8A5A5"/>
<path d="M68.7878 25.2612L68.8313 25.3032L68.7878 25.2612Z" fill="#868383"/>
<path d="M51.6978 25.3038L51.7412 25.3457L51.6978 25.3038Z" fill="#A8A5A5"/>
<path d="M68.8733 25.3038L68.9168 25.3457L68.8733 25.3038Z" fill="#686566"/>
<path d="M51.6123 25.3463L51.6558 25.3883L51.6123 25.3463Z" fill="#969394"/>
<path d="M51.5269 25.3887L51.5703 25.4307L51.5269 25.3887Z" fill="#767474"/>
<path d="M69.0869 25.4313L69.1304 25.4732L69.0869 25.4313Z" fill="#868383"/>
<path d="M69.1724 25.4739L69.2158 25.5158L69.1724 25.4739Z" fill="#686566"/>
<path d="M51.3132 25.5164L51.3567 25.5584L51.3132 25.5164Z" fill="#A8A5A5"/>
<path d="M51.2278 25.559L51.2712 25.6009L51.2278 25.559Z" fill="#686566"/>
<path d="M69.3005 25.559L69.344 25.6009L69.3005 25.559Z" fill="#969394"/>
<path d="M69.386 25.6015L69.4295 25.6435L69.386 25.6015Z" fill="#686566"/>
<path d="M51.0996 25.6441L51.1431 25.686L51.0996 25.6441Z" fill="#A8A5A5"/>
<path d="M51.0142 25.6865L51.0576 25.7284L51.0142 25.6865Z" fill="#686566"/>
<path d="M69.5142 25.6865L69.5576 25.7284L69.5142 25.6865Z" fill="#868383"/>
<path d="M50.886 25.7716L50.9287 25.814L50.886 25.7716ZM69.6424 25.7716L69.6852 25.814L69.6424 25.7716Z" fill="#A8A5A5"/>
<path d="M50.8005 25.8141L50.8433 25.8565L50.8005 25.8141ZM69.7279 25.8141L69.7706 25.8565L69.7279 25.8141Z" fill="#686566"/>
<path d="M50.6724 25.8993L50.7158 25.9412L50.6724 25.8993Z" fill="#767474"/>
<path d="M69.856 25.8993L69.8994 25.9412L69.856 25.8993Z" fill="#686566"/>
<path d="M50.5442 25.9843L50.5877 26.0263L50.5442 25.9843Z" fill="#969394"/>
<path d="M69.9841 25.9843L70.0276 26.0263L69.9841 25.9843Z" fill="#767474"/>
<path d="M50.4158 26.0693L50.4593 26.1113L50.4158 26.0693Z" fill="#969394"/>
<path d="M70.1123 26.0693L70.1558 26.1113L70.1123 26.0693Z" fill="#767474"/>
<path d="M50.2878 26.1544L50.3313 26.1964L50.2878 26.1544Z" fill="#969394"/>
<path d="M70.2405 26.1544L70.2839 26.1964L70.2405 26.1544Z" fill="#686566"/>
<path d="M50.1597 26.2396L50.2031 26.2815L50.1597 26.2396Z" fill="#969394"/>
<path d="M70.4116 26.2821L70.4551 26.324L70.4116 26.2821Z" fill="#A8A5A5"/>
<path d="M50.0312 26.3245L50.0747 26.3664L50.0312 26.3245Z" fill="#767474"/>
<path d="M70.5396 26.3671L70.583 26.409L70.5396 26.3671Z" fill="#868383"/>
<path d="M49.8606 26.4522L49.9041 26.4941L49.8606 26.4522Z" fill="#A8A5A5"/>
<path d="M70.6677 26.4522L70.7112 26.4941L70.6677 26.4522Z" fill="#686566"/>
<path d="M70.7104 26.4947L70.7539 26.5367L70.7104 26.4947Z" fill="#A8A5A5"/>
<path d="M49.7324 26.5373L49.7751 26.5797L49.7324 26.5373ZM70.8388 26.5797L70.8815 26.6221L70.8388 26.5797Z" fill="#767474"/>
<path d="M49.5615 26.6648L49.605 26.7068L49.5615 26.6648Z" fill="#868383"/>
<path d="M71.0096 26.7074L71.0524 26.7499L71.0096 26.7074ZM49.3906 26.7924L49.4334 26.835L49.3906 26.7924Z" fill="#767474"/>
<path d="M71.1804 26.8351L71.2239 26.877L71.1804 26.8351Z" fill="#686566"/>
<path d="M71.2231 26.8776L71.2666 26.9195L71.2231 26.8776Z" fill="#A8A5A5"/>
<path d="M49.2195 26.9202L49.2629 26.9621L49.2195 26.9202Z" fill="#686566"/>
<path d="M49.177 26.9626L49.2205 27.0045L49.177 26.9626Z" fill="#969394"/>
<path d="M71.394 27.0051L71.4375 27.047L71.394 27.0051Z" fill="#868383"/>
<path d="M49.0061 27.0902L49.0496 27.1321L49.0061 27.0902Z" fill="#686566"/>
<path d="M48.9634 27.1328L49.0069 27.1747L48.9634 27.1328Z" fill="#969394"/>
<path d="M71.6077 27.1754L71.6511 27.2173L71.6077 27.1754Z" fill="#868383"/>
<path d="M71.6506 27.2179L71.6941 27.2598L71.6506 27.2179Z" fill="#A8A5A5"/>
<path d="M48.7498 27.3029L48.7932 27.3448L48.7498 27.3029Z" fill="#767474"/>
<path d="M48.707 27.3454L48.7505 27.3873L48.707 27.3454Z" fill="#969394"/>
<path d="M71.8643 27.388L71.9077 27.4299L71.8643 27.388Z" fill="#868383"/>
<path d="M48.4504 27.5582L48.4939 27.6001L48.4504 27.5582Z" fill="#767474"/>
<path d="M48.4077 27.6006L48.4512 27.6425L48.4077 27.6006Z" fill="#868383"/>
<path d="M72.1204 27.6006L72.1638 27.6425L72.1204 27.6006Z" fill="#686566"/>
<path d="M72.1633 27.6431L72.206 27.6857L72.1633 27.6431ZM72.5051 27.9409L72.5478 27.9834L72.5051 27.9409ZM47.9807 27.9834L48.0234 28.026L47.9807 27.9834ZM72.5478 27.9834L72.5905 28.026L72.5478 27.9834ZM47.938 28.026L47.9807 28.0685L47.938 28.026Z" fill="#868383"/>
<path d="M72.5906 28.026L72.634 28.0679L72.5906 28.026Z" fill="#A8A5A5"/>
<path d="M47.8953 28.0685L47.938 28.1111L47.8953 28.0685ZM47.8525 28.1111L47.8953 28.1536L47.8525 28.1111ZM47.8098 28.1536L47.8525 28.1961L47.8098 28.1536Z" fill="#868383"/>
<path d="M47.6815 28.2812C44.7672 31.1823 42.807 35.2168 42.3482 39.2978C42.241 40.2516 42.2981 41.2308 42.2981 42.1902V47.0818C42.2981 51.5633 42.2554 56.0402 42.2554 60.523H47.7242V36.8308L47.7669 30.6206V29.0043L47.6815 28.2812Z" fill="#FF8800"/>
<path d="M72.8467 28.2812L72.8894 28.3237L72.8467 28.2812ZM72.8894 28.3237L72.9321 28.3662L72.8894 28.3237ZM72.9321 28.3662L72.9749 28.4088L72.9321 28.3662ZM72.9749 28.4088L73.0176 28.4513L72.9749 28.4088Z" fill="#868383"/>
<path d="M60.0293 28.664V28.7064H61.012L60.0293 28.664ZM59.2603 28.7064V28.7488H59.3884L59.2603 28.7064Z" fill="#A8A5A5"/>
<path d="M59.3884 28.7065V28.7489H59.5593L59.3884 28.7065Z" fill="#686566"/>
<path d="M59.5591 28.7065V28.7489H59.7727L59.5591 28.7065Z" fill="#363534"/>
<path d="M59.7727 28.7246C58.9695 28.8295 58.1787 28.8467 57.3801 29.0223C55.1849 29.505 53.1755 30.6137 51.6622 32.2795C47.2901 37.0922 46.9526 44.6109 50.5154 49.9317C51.5161 51.4255 52.7705 52.7377 54.3466 53.6386C55.3173 54.1933 56.3321 54.5893 57.4229 54.8381C58.7631 55.1439 60.2893 55.1903 61.6527 55.0236C63.3083 54.8215 64.8831 54.3698 66.3525 53.5765C71.3257 50.8925 73.4782 44.9908 72.7916 39.6381C72.1341 34.5069 67.8778 29.8585 62.7635 28.9081C61.8103 28.731 60.7422 28.5979 59.7727 28.7246Z" fill="#040707"/>
<path d="M61.2256 28.7065V28.7489H61.3965L61.2256 28.7065Z" fill="#363534"/>
<path d="M61.3962 28.7065V28.7489H61.5671L61.3962 28.7065Z" fill="#686566"/>
<path d="M61.5674 28.7065V28.7489H61.6955L61.5674 28.7065ZM58.8616 28.763L58.8898 28.7772L58.8616 28.763Z" fill="#A8A5A5"/>
<path d="M58.9182 28.7491V28.7915H59.1318L58.9182 28.7491Z" fill="#363534"/>
<path d="M61.9377 28.7633L61.9664 28.7781L61.9377 28.7633Z" fill="#868383"/>
<path d="M62.0232 28.7633L62.0519 28.7781L62.0232 28.7633Z" fill="#BBB8B7"/>
<path d="M47.1689 28.7917L47.2124 28.8336L47.1689 28.7917Z" fill="#6D6764"/>
<path d="M58.5195 28.8058L58.5482 28.8206L58.5195 28.8058Z" fill="#868383"/>
<path d="M62.251 28.7917V28.8341H62.3791L62.251 28.7917Z" fill="#969394"/>
<path d="M58.1919 28.8341V28.8765H58.3201L58.1919 28.8341ZM62.5072 28.8341V28.8765H62.6353L62.5072 28.8341Z" fill="#868383"/>
<path d="M73.3596 28.8341L73.4031 28.876L73.3596 28.8341Z" fill="#969394"/>
<path d="M57.9355 28.8766V28.919H58.0637L57.9355 28.8766Z" fill="#767474"/>
<path d="M62.6782 28.8766V28.919H62.8064L62.6782 28.8766Z" fill="#4E4C4B"/>
<path d="M73.4021 28.8766L73.4456 28.9186L73.4021 28.8766Z" fill="#868383"/>
<path d="M57.7507 28.9334L57.7794 28.9481L57.7507 28.9334Z" fill="#686566"/>
<path d="M62.9343 28.9192V28.9616H63.0625L62.9343 28.9192ZM73.4448 28.9192L73.4875 28.9616L73.4448 28.9192Z" fill="#767474"/>
<path d="M57.5369 28.9759L57.5655 28.9907L57.5369 28.9759Z" fill="#686566"/>
<path d="M63.1768 28.9759L63.2055 28.9907L63.1768 28.9759Z" fill="#969394"/>
<path d="M57.3232 29.0185L57.3519 29.0332L57.3232 29.0185Z" fill="#767474"/>
<path d="M63.3477 29.0185L63.3763 29.0332L63.3477 29.0185Z" fill="#868383"/>
<path d="M57.1523 29.061L57.181 29.0758L57.1523 29.061Z" fill="#686566"/>
<path d="M63.5188 29.061L63.5475 29.0758L63.5188 29.061Z" fill="#868383"/>
<path d="M56.9817 29.1036L57.0104 29.1183L56.9817 29.1036Z" fill="#686566"/>
<path d="M63.6895 29.1036L63.7181 29.1183L63.6895 29.1036Z" fill="#A8A5A5"/>
<path d="M56.8108 29.1461L56.8395 29.1609L56.8108 29.1461Z" fill="#767474"/>
<path d="M56.6824 29.1885L56.7111 29.2033L56.6824 29.1885Z" fill="#4E4C4B"/>
<path d="M63.9885 29.1885L64.0172 29.2033L63.9885 29.1885Z" fill="#BBB8B7"/>
<path d="M56.5117 29.2311L56.5404 29.2459L56.5117 29.2311Z" fill="#767474"/>
<path d="M73.7014 29.2169L73.7449 29.2589L73.7014 29.2169Z" fill="#868383"/>
<path d="M46.7415 29.2595L46.7849 29.3014L46.7415 29.2595Z" fill="#605B58"/>
<path d="M56.3835 29.2737L56.4122 29.2884L56.3835 29.2737Z" fill="#5B5857"/>
<path d="M73.7439 29.2595L73.7874 29.3014L73.7439 29.2595Z" fill="#868383"/>
<path d="M56.2551 29.3162L56.2833 29.3304L56.2551 29.3162ZM56.127 29.3586L56.1551 29.3728L56.127 29.3586Z" fill="#4E4C4B"/>
<path d="M64.4727 29.3446L64.5161 29.3866L64.4727 29.3446Z" fill="#767474"/>
<path d="M64.6007 29.3871L64.6435 29.4297L64.6007 29.3871ZM55.7566 29.4722L55.7993 29.5148L55.7566 29.4722Z" fill="#868383"/>
<path d="M64.8142 29.4723L64.8577 29.5142L64.8142 29.4723Z" fill="#767474"/>
<path d="M55.6287 29.5147L55.6721 29.5566L55.6287 29.5147Z" fill="#A8A5A5"/>
<path d="M73.9578 29.5147L74.0012 29.5566L73.9578 29.5147Z" fill="#969394"/>
<path d="M55.543 29.5572L55.5864 29.5992L55.543 29.5572Z" fill="#767474"/>
<path d="M65.0278 29.5572L65.0713 29.5992L65.0278 29.5572Z" fill="#868383"/>
<path d="M74.0002 29.5572L74.0437 29.5992L74.0002 29.5572Z" fill="#767474"/>
<path d="M65.1135 29.5998L65.157 29.6417L65.1135 29.5998Z" fill="#686566"/>
<path d="M55.3293 29.6423L55.3728 29.6843L55.3293 29.6423Z" fill="#868383"/>
<path d="M55.2439 29.6849L55.2874 29.7268L55.2439 29.6849Z" fill="#686566"/>
<path d="M65.3271 29.6849L65.3706 29.7268L65.3271 29.6849Z" fill="#A8A5A5"/>
<path d="M65.4126 29.7274L65.456 29.7694L65.4126 29.7274Z" fill="#868383"/>
<path d="M55.0303 29.77L55.0738 29.812L55.0303 29.77Z" fill="#A8A5A5"/>
<path d="M65.498 29.77L65.5415 29.812L65.498 29.77Z" fill="#868383"/>
<path d="M74.1712 29.77L74.214 29.8124L74.1712 29.77ZM54.9448 29.8124L54.9875 29.8548L54.9448 29.8124Z" fill="#969394"/>
<path d="M65.5835 29.8124L65.627 29.8543L65.5835 29.8124Z" fill="#686566"/>
<path d="M74.2139 29.8124L74.2573 29.8543L74.2139 29.8124Z" fill="#767474"/>
<path d="M54.8594 29.855L54.9028 29.8969L54.8594 29.855Z" fill="#868383"/>
<path d="M65.6689 29.855L65.7124 29.8969L65.6689 29.855Z" fill="#686566"/>
<path d="M54.7739 29.8975L54.8174 29.9394L54.7739 29.8975Z" fill="#868383"/>
<path d="M65.7544 29.8975L65.7979 29.9394L65.7544 29.8975Z" fill="#686566"/>
<path d="M54.6885 29.9401L54.7319 29.982L54.6885 29.9401Z" fill="#868383"/>
<path d="M65.8398 29.9401L65.8833 29.982L65.8398 29.9401Z" fill="#686566"/>
<path d="M54.603 29.9826L54.6458 30.025L54.603 29.9826ZM65.9253 29.9826L65.968 30.025L65.9253 29.9826Z" fill="#868383"/>
<path d="M54.5176 30.0252L54.561 30.0671L54.5176 30.0252Z" fill="#A8A5A5"/>
<path d="M66.0107 30.0252L66.0535 30.0676L66.0107 30.0252ZM74.3849 30.0252L74.4276 30.0676L74.3849 30.0252Z" fill="#868383"/>
<path d="M66.0962 30.0677L66.1397 30.1097L66.0962 30.0677Z" fill="#A8A5A5"/>
<path d="M54.304 30.1527L54.3474 30.1946L54.304 30.1527Z" fill="#686566"/>
<path d="M54.2185 30.1953L54.262 30.2372L54.2185 30.1953Z" fill="#868383"/>
<path d="M66.3098 30.1953L66.3533 30.2372L66.3098 30.1953Z" fill="#767474"/>
<path d="M74.5131 30.1953L74.5558 30.2376L74.5131 30.1953ZM54.1331 30.2376L54.1758 30.28L54.1331 30.2376ZM66.3952 30.2376L66.438 30.28L66.3952 30.2376Z" fill="#A8A5A5"/>
<path d="M74.5558 30.2378L74.5985 30.2804L74.5558 30.2378ZM54.0049 30.3229L54.0476 30.3654L54.0049 30.3229Z" fill="#767474"/>
<path d="M66.5233 30.3229L66.5661 30.3653L66.5233 30.3229ZM45.8442 30.3653L45.887 30.4077L45.8442 30.3653Z" fill="#686566"/>
<path d="M66.6086 30.3655L66.6521 30.4074L66.6086 30.3655Z" fill="#A8A5A5"/>
<path d="M74.6838 30.408L74.7273 30.45L74.6838 30.408Z" fill="#868383"/>
<path d="M53.7913 30.4506L53.8347 30.4925L53.7913 30.4506Z" fill="#969394"/>
<path d="M66.7371 30.4506L66.7805 30.4925L66.7371 30.4506Z" fill="#767474"/>
<path d="M53.6628 30.5356L53.7063 30.5775L53.6628 30.5356Z" fill="#969394"/>
<path d="M66.8652 30.5356L66.9087 30.5775L66.8652 30.5356Z" fill="#686566"/>
<path d="M74.8123 30.5781L74.8557 30.6201L74.8123 30.5781Z" fill="#969394"/>
<path d="M45.6875 30.649L45.7028 30.6776L45.6875 30.649Z" fill="#F4CDA1"/>
<path d="M53.5349 30.6207L53.5784 30.6626L53.5349 30.6207Z" fill="#969394"/>
<path d="M66.9934 30.6207L67.0369 30.6626L66.9934 30.6207Z" fill="#686566"/>
<path d="M45.6306 30.6632L45.6741 30.7051L45.6306 30.6632Z" fill="#767474"/>
<path d="M53.4067 30.7057L53.4502 30.7477L53.4067 30.7057Z" fill="#A8A5A5"/>
<path d="M67.1216 30.7057L67.165 30.7477L67.1216 30.7057Z" fill="#686566"/>
<path d="M45.5885 30.7483L45.5454 30.8759L45.5885 30.7483Z" fill="#F3C897"/>
<path d="M53.364 30.7483L53.4075 30.7903L53.364 30.7483Z" fill="#686566"/>
<path d="M74.9404 30.7483L74.9839 30.7903L74.9404 30.7483Z" fill="#969394"/>
<path d="M67.2498 30.7907L67.2932 30.8327L67.2498 30.7907Z" fill="#767474"/>
<path d="M53.2358 30.8333L53.2793 30.8752L53.2358 30.8333Z" fill="#969394"/>
<path d="M45.5028 30.8759L45.4597 31.0035L45.5028 30.8759Z" fill="#F2C28C"/>
<path d="M67.3779 30.8759L67.4214 30.9178L67.3779 30.8759Z" fill="#969394"/>
<path d="M75.0686 30.9184L75.112 30.9603L75.0686 30.9184Z" fill="#767474"/>
<path d="M45.417 30.961L45.4605 31.0029L45.417 30.961Z" fill="#686566"/>
<path d="M53.0649 30.961L53.1084 31.0029L53.0649 30.961Z" fill="#969394"/>
<path d="M67.5488 31.0035L67.5923 31.0454L67.5488 31.0035Z" fill="#868383"/>
<path d="M75.1541 31.0461L75.1975 31.088L75.1541 31.0461Z" fill="#A8A5A5"/>
<path d="M45.3318 31.0885L45.3752 31.1304L45.3318 31.0885Z" fill="#686566"/>
<path d="M52.8513 31.131L52.894 31.1734L52.8513 31.131ZM67.7197 31.131L67.7625 31.1734L67.7197 31.131Z" fill="#868383"/>
<path d="M45.2461 31.2162L45.2888 31.2585L45.2461 31.2162ZM75.282 31.2162L75.3248 31.2585L75.282 31.2162Z" fill="#686566"/>
<path d="M67.8906 31.2587L67.9341 31.3006L67.8906 31.2587Z" fill="#A8A5A5"/>
<path d="M67.9333 31.3013L67.9768 31.3432L67.9333 31.3013Z" fill="#767474"/>
<path d="M45.1606 31.3438L45.2041 31.3858L45.1606 31.3438Z" fill="#686566"/>
<path d="M52.595 31.3438L52.6384 31.3858L52.595 31.3438Z" fill="#868383"/>
<path d="M75.3674 31.3438L75.4109 31.3858L75.3674 31.3438Z" fill="#767474"/>
<path d="M45.161 31.3862L45.1179 31.5138L45.161 31.3862Z" fill="#F4CDA1"/>
<path d="M52.5522 31.3862L52.5957 31.4282L52.5522 31.3862Z" fill="#767474"/>
<path d="M68.147 31.4713L68.1904 31.5132L68.147 31.4713Z" fill="#868383"/>
<path d="M75.4531 31.4713L75.4966 31.5132L75.4531 31.4713Z" fill="#767474"/>
<path d="M75.5386 31.599L75.5814 31.6415L75.5386 31.599ZM44.9473 31.6841L44.99 31.7266L44.9473 31.6841Z" fill="#767474"/>
<path d="M68.4033 31.6841L68.4468 31.726L68.4033 31.6841Z" fill="#A8A5A5"/>
<path d="M68.446 31.7265L68.4895 31.7684L68.446 31.7265Z" fill="#868383"/>
<path d="M75.6239 31.7265L75.6666 31.7689L75.6239 31.7265ZM68.4888 31.7689L68.5315 31.8113L68.4888 31.7689Z" fill="#686566"/>
<path d="M44.8188 31.8967L44.8623 31.9387L44.8188 31.8967Z" fill="#767474"/>
<path d="M75.7522 31.9393L75.7957 31.9812L75.7522 31.9393Z" fill="#969394"/>
<path d="M75.8375 32.0668L75.8802 32.1092L75.8375 32.0668ZM44.6907 32.1092L44.7334 32.1516L44.6907 32.1092Z" fill="#686566"/>
<path d="M75.8801 32.1519L75.9236 32.1938L75.8801 32.1519Z" fill="#A8A5A5"/>
<path d="M75.9658 32.2796L76.0093 32.3215L75.9658 32.2796Z" fill="#686566"/>
<path d="M76.0085 32.3645L76.052 32.4065L76.0085 32.3645Z" fill="#969394"/>
<path d="M44.52 32.4071L44.5635 32.449L44.52 32.4071Z" fill="#686566"/>
<path d="M51.5269 32.4071L51.5703 32.449L51.5269 32.4071Z" fill="#868383"/>
<path d="M44.5342 32.4781L44.5495 32.5066L44.5342 32.4781Z" fill="#FAEBD8"/>
<path d="M51.4842 32.4496L51.527 32.492L51.4842 32.4496ZM44.4773 32.492L44.52 32.5344L44.4773 32.492Z" fill="#868383"/>
<path d="M69.2578 32.5348L69.3013 32.5767L69.2578 32.5348Z" fill="#686566"/>
<path d="M69.3005 32.5773L69.344 32.6193L69.3005 32.5773Z" fill="#868383"/>
<path d="M76.1367 32.5773L76.1802 32.6193L76.1367 32.5773Z" fill="#686566"/>
<path d="M69.3431 32.6199L69.3858 32.6624L69.3431 32.6199ZM76.1792 32.6624L76.2219 32.705L76.1792 32.6624ZM51.2703 32.705L51.313 32.7475L51.2703 32.705ZM76.2219 32.7475L76.2646 32.79L76.2219 32.7475Z" fill="#868383"/>
<path d="M76.2649 32.8325L76.3084 32.8745L76.2649 32.8325Z" fill="#A8A5A5"/>
<path d="M51.0996 32.9176L51.1423 32.96L51.0996 32.9176ZM69.5997 32.9176L69.6424 32.96L69.5997 32.9176Z" fill="#868383"/>
<path d="M76.3076 32.9176L76.3511 32.9595L76.3076 32.9176Z" fill="#A8A5A5"/>
<path d="M44.2207 32.9601L44.2642 33.0021L44.2207 32.9601Z" fill="#686566"/>
<path d="M69.6426 32.9601L69.6853 33.0025L69.6426 32.9601ZM76.3505 33.0025L76.3932 33.0449L76.3505 33.0025Z" fill="#A8A5A5"/>
<path d="M44.178 33.0452L44.2215 33.0871L44.178 33.0452Z" fill="#686566"/>
<path d="M50.9712 33.0876L51.0147 33.1296L50.9712 33.0876Z" fill="#767474"/>
<path d="M76.3931 33.0876L76.4365 33.1296L76.3931 33.0876Z" fill="#A8A5A5"/>
<path d="M44.1353 33.1302L44.1787 33.1722L44.1353 33.1302Z" fill="#686566"/>
<path d="M69.8132 33.1728L69.8567 33.2147L69.8132 33.1728Z" fill="#868383"/>
<path d="M76.4358 33.1728L76.4793 33.2147L76.4358 33.1728Z" fill="#A8A5A5"/>
<path d="M44.0925 33.2154L44.136 33.2573L44.0925 33.2154Z" fill="#686566"/>
<path d="M69.856 33.2154L69.8994 33.2573L69.856 33.2154Z" fill="#A8A5A5"/>
<path d="M50.8433 33.2579L50.8867 33.2999L50.8433 33.2579Z" fill="#767474"/>
<path d="M76.4785 33.2579L76.522 33.2999L76.4785 33.2579Z" fill="#A8A5A5"/>
<path d="M44.0498 33.3003L44.0933 33.3423L44.0498 33.3003Z" fill="#686566"/>
<path d="M76.5212 33.3429L76.5647 33.3848L76.5212 33.3429Z" fill="#A8A5A5"/>
<path d="M69.9841 33.3854L70.0276 33.4273L69.9841 33.3854Z" fill="#767474"/>
<path d="M50.7151 33.428L50.7586 33.4699L50.7151 33.428Z" fill="#969394"/>
<path d="M70.0269 33.428L70.0703 33.4699L70.0269 33.428Z" fill="#A8A5A5"/>
<path d="M76.564 33.428L76.6074 33.4699L76.564 33.428Z" fill="#868383"/>
<path d="M76.6067 33.5131L76.6502 33.555L76.6067 33.5131Z" fill="#686566"/>
<path d="M50.6296 33.5557L50.6731 33.5976L50.6296 33.5557Z" fill="#868383"/>
<path d="M70.1553 33.5982L70.1987 33.6401L70.1553 33.5982Z" fill="#969394"/>
<path d="M50.5442 33.6832L50.5877 33.7251L50.5442 33.6832Z" fill="#767474"/>
<path d="M76.6921 33.7257L76.7356 33.7677L76.6921 33.7257Z" fill="#A8A5A5"/>
<path d="M43.8362 33.7683L43.8796 33.8102L43.8362 33.7683Z" fill="#868383"/>
<path d="M70.2832 33.7683L70.3267 33.8102L70.2832 33.7683Z" fill="#969394"/>
<path d="M50.4587 33.8108L50.5022 33.8528L50.4587 33.8108Z" fill="#767474"/>
<path d="M76.7346 33.8108L76.7781 33.8528L76.7346 33.8108Z" fill="#868383"/>
<path d="M43.7935 33.8534L43.8369 33.8953L43.7935 33.8534Z" fill="#686566"/>
<path d="M50.3733 33.9384L50.4168 33.9803L50.3733 33.9384Z" fill="#969394"/>
<path d="M70.4116 33.9384L70.4551 33.9803L70.4116 33.9384Z" fill="#A8A5A5"/>
<path d="M76.8203 34.0235L76.8638 34.0654L76.8203 34.0235Z" fill="#969394"/>
<path d="M50.2878 34.066L50.3313 34.108L50.2878 34.066Z" fill="#A8A5A5"/>
<path d="M70.4968 34.066L70.5403 34.108L70.4968 34.066Z" fill="#767474"/>
<path d="M76.863 34.1085L76.9065 34.1505L76.863 34.1085Z" fill="#686566"/>
<path d="M43.6653 34.1511L43.7088 34.1931L43.6653 34.1511Z" fill="#767474"/>
<path d="M50.2451 34.1511L50.2886 34.1931L50.2451 34.1511Z" fill="#686566"/>
<path d="M70.5823 34.1937L70.6257 34.2356L70.5823 34.1937Z" fill="#686566"/>
<path d="M76.9058 34.2362L76.9485 34.2786L76.9058 34.2362ZM50.1597 34.2786L50.2024 34.321L50.1597 34.2786Z" fill="#A8A5A5"/>
<path d="M70.6677 34.3212L70.7112 34.3631L70.6677 34.3212Z" fill="#686566"/>
<path d="M76.9482 34.3212L76.9917 34.3631L76.9482 34.3212Z" fill="#767474"/>
<path d="M43.5798 34.3637L43.6233 34.4057L43.5798 34.3637Z" fill="#868383"/>
<path d="M50.1169 34.3637L50.1604 34.4057L50.1169 34.3637Z" fill="#686566"/>
<path d="M70.7104 34.3637L70.7539 34.4057L70.7104 34.3637Z" fill="#A8A5A5"/>
<path d="M70.7532 34.4489L70.7966 34.4908L70.7532 34.4489Z" fill="#686566"/>
<path d="M76.991 34.4489L77.0337 34.4912L76.991 34.4489ZM50.0312 34.4912L50.074 34.5336L50.0312 34.4912Z" fill="#A8A5A5"/>
<path d="M77.0339 34.534L77.0774 34.5759L77.0339 34.534Z" fill="#767474"/>
<path d="M43.4944 34.5764L43.5371 34.6188L43.4944 34.5764ZM49.9886 34.5764L50.0314 34.6188L49.9886 34.5764Z" fill="#868383"/>
<path d="M70.8388 34.5764L70.8815 34.619L70.8388 34.5764ZM49.946 34.6615L49.9888 34.704L49.946 34.6615Z" fill="#686566"/>
<path d="M77.0764 34.6615L77.1199 34.7034L77.0764 34.6615Z" fill="#969394"/>
<path d="M70.9241 34.704L70.9668 34.7466L70.9241 34.704ZM43.4089 34.7891L43.4517 34.8316L43.4089 34.7891Z" fill="#767474"/>
<path d="M71.0094 34.8317L71.0521 34.8741L71.0094 34.8317ZM49.8176 34.8741L49.8604 34.9165L49.8176 34.8741Z" fill="#A8A5A5"/>
<path d="M77.1621 34.8743L77.2056 34.9162L77.1621 34.8743Z" fill="#868383"/>
<path d="M71.0522 34.9167L71.0957 34.9586L71.0522 34.9167Z" fill="#686566"/>
<path d="M49.7751 34.9592L49.8186 35.0012L49.7751 34.9592Z" fill="#A8A5A5"/>
<path d="M77.2048 35.0018L77.2483 35.0437L77.2048 35.0018Z" fill="#969394"/>
<path d="M49.7324 35.0443L49.7759 35.0862L49.7324 35.0443Z" fill="#868383"/>
<path d="M71.1377 35.0443L71.1812 35.0862L71.1377 35.0443Z" fill="#A8A5A5"/>
<path d="M43.2808 35.1294L43.3242 35.1714L43.2808 35.1294Z" fill="#686566"/>
<path d="M49.6895 35.1294L49.7329 35.1714L49.6895 35.1294Z" fill="#868383"/>
<path d="M71.1804 35.1294L71.2239 35.1714L71.1804 35.1294Z" fill="#686566"/>
<path d="M49.647 35.2144L49.6904 35.2563L49.647 35.2144Z" fill="#868383"/>
<path d="M77.29 35.2144L77.3335 35.2563L77.29 35.2144Z" fill="#686566"/>
<path d="M43.238 35.257L43.2815 35.2989L43.238 35.257Z" fill="#767474"/>
<path d="M49.6042 35.2995L49.6477 35.3414L49.6042 35.2995Z" fill="#868383"/>
<path d="M71.3086 35.3421L71.3521 35.384L71.3086 35.3421Z" fill="#A8A5A5"/>
<path d="M77.333 35.3421L77.3765 35.384L77.333 35.3421Z" fill="#767474"/>
<path d="M43.1953 35.3846L43.238 35.427L43.1953 35.3846ZM49.5614 35.3846L49.6041 35.427L49.5614 35.3846Z" fill="#868383"/>
<path d="M71.3515 35.4272L71.3942 35.4696L71.3515 35.4272ZM49.5188 35.4696L49.5615 35.512L49.5188 35.4696ZM77.3758 35.4696L77.4185 35.512L77.3758 35.4696Z" fill="#868383"/>
<path d="M71.394 35.5121L71.4375 35.5541L71.394 35.5121Z" fill="#686566"/>
<path d="M49.4761 35.5547L49.5195 35.5966L49.4761 35.5547Z" fill="#969394"/>
<path d="M71.4368 35.5973L71.4802 35.6392L71.4368 35.5973Z" fill="#686566"/>
<path d="M77.4185 35.5973L77.4619 35.6392L77.4185 35.5973Z" fill="#868383"/>
<path d="M49.4333 35.6398L49.4768 35.6817L49.4333 35.6398Z" fill="#A8A5A5"/>
<path d="M77.4612 35.7249L77.5046 35.7669L77.4612 35.7249Z" fill="#868383"/>
<path d="M43.0671 35.7675L43.1106 35.8094L43.0671 35.7675Z" fill="#767474"/>
<path d="M43.0813 35.8383L43.0966 35.8668L43.0813 35.8383Z" fill="#FEF9F2"/>
<path d="M77.5466 35.9801L77.5901 36.022L77.5466 35.9801Z" fill="#767474"/>
<path d="M49.2625 36.0227L49.3059 36.0646L49.2625 36.0227Z" fill="#868383"/>
<path d="M49.2195 36.1078L49.2629 36.1497L49.2195 36.1078Z" fill="#A8A5A5"/>
<path d="M42.9531 36.1786L42.9684 36.2071L42.9531 36.1786Z" fill="#767474"/>
<path d="M71.7358 36.1927L71.7793 36.2347L71.7358 36.1927Z" fill="#686566"/>
<path d="M42.9531 36.2637L42.9684 36.2922L42.9531 36.2637Z" fill="#FCF2E4"/>
<path d="M49.177 36.2353L49.2205 36.2772L49.177 36.2353Z" fill="#686566"/>
<path d="M71.7788 36.2778L71.8223 36.3198L71.7788 36.2778Z" fill="#868383"/>
<path d="M77.6321 36.2778L77.6748 36.3204L77.6321 36.2778ZM42.9104 36.3487L42.9249 36.3771L42.9104 36.3487Z" fill="#969394"/>
<path d="M77.6887 36.3914L77.704 36.4199L77.6887 36.3914Z" fill="#767474"/>
<path d="M42.9104 36.4339L42.9257 36.4624L42.9104 36.4339Z" fill="#F9E5CC"/>
<path d="M71.8643 36.4481L71.9077 36.49L71.8643 36.4481Z" fill="#A8A5A5"/>
<path d="M49.0488 36.533L49.0923 36.575L49.0488 36.533Z" fill="#868383"/>
<path d="M77.7314 36.5614L77.7467 36.59L77.7314 36.5614Z" fill="#969394"/>
<path d="M71.9067 36.5756L71.9502 36.6175L71.9067 36.5756Z" fill="#686566"/>
<path d="M42.8247 36.6465L42.84 36.6751L42.8247 36.6465Z" fill="#767474"/>
<path d="M49.0061 36.6181L49.0496 36.66L49.0061 36.6181Z" fill="#A8A5A5"/>
<path d="M71.9495 36.6607L71.9929 36.7026L71.9495 36.6607Z" fill="#868383"/>
<path d="M77.7742 36.6891L77.7895 36.7176L77.7742 36.6891Z" fill="#767474"/>
<path d="M42.8247 36.7316L42.84 36.7602L42.8247 36.7316Z" fill="#FAEBD8"/>
<path d="M48.9633 36.7458L49.006 36.7884L48.9633 36.7458ZM42.7822 36.8167L42.7968 36.845L42.7822 36.8167ZM77.817 36.8593L77.8316 36.8876L77.817 36.8593Z" fill="#868383"/>
<path d="M42.7822 36.9017L42.7975 36.9302L42.7822 36.9017Z" fill="#FAEBD8"/>
<path d="M72.0349 36.8733L72.0784 36.9152L72.0349 36.8733Z" fill="#868383"/>
<path d="M42.7395 36.9868L42.7548 37.0154L42.7395 36.9868Z" fill="#767474"/>
<path d="M77.8599 37.0294L77.8752 37.0579L77.8599 37.0294Z" fill="#969394"/>
<path d="M42.7395 37.0719L42.7548 37.1005L42.7395 37.0719Z" fill="#FAEBD8"/>
<path d="M48.8491 37.1143L48.8644 37.1429L48.8491 37.1143Z" fill="#4E4C4B"/>
<path d="M72.1345 37.1143L72.1498 37.1429L72.1345 37.1143Z" fill="#424140"/>
<path d="M42.697 37.1569L42.712 37.1855L42.697 37.1569Z" fill="#686566"/>
<path d="M77.9023 37.1994L77.9176 37.228L77.9023 37.1994Z" fill="#969394"/>
<path d="M48.8064 37.242L48.8217 37.2706L48.8064 37.242Z" fill="#4E4C4B"/>
<path d="M42.6541 37.3697L42.6691 37.3982L42.6541 37.3697Z" fill="#868383"/>
<path d="M48.7639 37.3697L48.7792 37.3982L48.7639 37.3697Z" fill="#4E4C4B"/>
<path d="M77.9451 37.3697L77.9604 37.3982L77.9451 37.3697Z" fill="#969394"/>
<path d="M42.6541 37.4546L42.6691 37.4832L42.6541 37.4546Z" fill="#F9E5CC"/>
<path d="M77.9739 37.4688V37.5964H78.017L77.9739 37.4688Z" fill="#4E4C4B"/>
<path d="M42.6113 37.5823L42.6263 37.6108L42.6113 37.5823Z" fill="#969394"/>
<path d="M48.6782 37.6249L48.6935 37.6534L48.6782 37.6249Z" fill="#767474"/>
<path d="M78.0166 37.6816V37.8092H78.0597L78.0166 37.6816Z" fill="#686566"/>
<path d="M42.5688 37.7949L42.5839 37.8235L42.5688 37.7949Z" fill="#969394"/>
<path d="M48.6355 37.7949L48.6508 37.8235L48.6355 37.7949Z" fill="#4E4C4B"/>
<path d="M78.0593 37.8517V37.9793H78.1024L78.0593 37.8517Z" fill="#4E4C4B"/>
<path d="M42.5259 37.9651L42.5409 37.9937L42.5259 37.9651Z" fill="#5B5857"/>
<path d="M72.4336 38.0077L72.4489 38.0362L72.4336 38.0077Z" fill="#4E4C4B"/>
<path d="M78.0593 37.9793L78.1028 38.0212L78.0593 37.9793Z" fill="#A8A5A5"/>
<path d="M48.5503 38.0927L48.5656 38.1212L48.5503 38.0927Z" fill="#5B5857"/>
<path d="M78.1021 38.0643V38.1919H78.1451L78.1021 38.0643Z" fill="#4E4C4B"/>
<path d="M72.4763 38.1352L72.4916 38.1638L72.4763 38.1352Z" fill="#767474"/>
<path d="M78.1021 38.1919L78.1455 38.2339L78.1021 38.1919Z" fill="#A8A5A5"/>
<path d="M48.5076 38.2629L48.5229 38.2914L48.5076 38.2629Z" fill="#4E4C4B"/>
<path d="M72.519 38.3055L72.5343 38.334L72.519 38.3055Z" fill="#5B5857"/>
<path d="M78.1448 38.277V38.4046H78.1879L78.1448 38.277Z" fill="#4E4C4B"/>
<path d="M48.4646 38.4329L48.4791 38.4612L48.4646 38.4329ZM72.5617 38.4753L72.5763 38.5035L72.5617 38.4753Z" fill="#5B5857"/>
<path d="M42.4404 38.5181L42.4554 38.5466L42.4404 38.5181Z" fill="#767474"/>
<path d="M78.1875 38.5322V38.6598H78.2306L78.1875 38.5322Z" fill="#5B5857"/>
<path d="M48.4219 38.6032L48.4364 38.6314L48.4219 38.6032ZM72.6045 38.6456L72.619 38.6738L72.6045 38.6456Z" fill="#686566"/>
<path d="M48.3652 38.7448V38.8724H48.4083L48.3652 38.7448Z" fill="#868383"/>
<path d="M42.3977 38.8158L42.4127 38.8443L42.3977 38.8158Z" fill="#767474"/>
<path d="M72.6472 38.8158L72.6625 38.8443L72.6472 38.8158Z" fill="#868383"/>
<path d="M78.2302 38.7874V38.915H78.2733L78.2302 38.7874Z" fill="#5B5857"/>
<path d="M48.3364 38.986L48.351 39.0143L48.3364 38.986ZM72.6899 39.0284L72.7044 39.0566L72.6899 39.0284Z" fill="#767474"/>
<path d="M78.2871 39.1561L78.3024 39.1846L78.2871 39.1561Z" fill="#767474"/>
<path d="M48.2798 39.1703V39.2979H48.3225L48.2798 39.1703ZM72.7187 39.2128V39.3404H72.7614L72.7187 39.2128Z" fill="#868383"/>
<path d="M78.2871 39.2412L78.3024 39.2698L78.2871 39.2412Z" fill="#BBB8B7"/>
<path d="M48.2371 39.4255V39.5531H48.2798L48.2371 39.4255ZM72.7614 39.468V39.5956H72.8042L72.7614 39.468Z" fill="#868383"/>
<path d="M78.3157 39.468V39.6381H78.3588L78.3157 39.468Z" fill="#A8A5A5"/>
<path d="M48.2083 39.709L48.2228 39.7372L48.2083 39.709ZM72.8181 39.7514L72.8326 39.7796L72.8181 39.7514Z" fill="#A8A5A5"/>
<path d="M48.2083 39.7941L48.2235 39.8227L48.2083 39.7941Z" fill="#5B5857"/>
<path d="M72.8042 39.8083V39.9784H72.8473L72.8042 39.8083Z" fill="#363534"/>
<path d="M78.3584 39.8509V39.9785H78.4015L78.3584 39.8509Z" fill="#686566"/>
<path d="M48.1658 40.0067L48.1803 40.0359L48.1658 40.0067ZM78.3726 40.0067L78.3871 40.0359L78.3726 40.0067Z" fill="#A8A5A5"/>
<path d="M48.1516 40.0635V40.2762H48.1947L48.1516 40.0635Z" fill="#363534"/>
<path d="M72.8467 40.0635V40.1911H72.8898L72.8467 40.0635Z" fill="#A8A5A5"/>
<path d="M72.8467 40.1911V40.4038H72.8894L72.8467 40.1911ZM78.401 40.1911V40.3613H78.4437L78.401 40.1911Z" fill="#363534"/>
<path d="M48.1089 40.3612V40.4888H48.152L48.1089 40.3612Z" fill="#A8A5A5"/>
<path d="M78.4011 40.3612V40.5313H78.4442L78.4011 40.3612Z" fill="#686566"/>
<path d="M48.1089 40.4889V40.7441H48.152L48.1089 40.4889Z" fill="#363534"/>
<path d="M72.8894 40.5314V40.659H72.9321L72.8894 40.5314ZM78.401 40.5314V40.7441H78.4437L78.401 40.5314Z" fill="#A8A5A5"/>
<path d="M72.8894 40.659V40.8291H72.9325L72.8894 40.659Z" fill="#686566"/>
<path d="M72.8894 40.8292V41.0844H72.9325L72.8894 40.8292Z" fill="#363534"/>
<path d="M48.0659 40.8717V41.0419H48.109L48.0659 40.8717Z" fill="#A8A5A5"/>
<path d="M48.0659 41.0418V41.2545H48.109L48.0659 41.0418Z" fill="#686566"/>
<path d="M78.4437 41.0418V42.7007H78.4864C78.4864 42.2255 78.6278 41.4788 78.4437 41.0418ZM48.0659 41.2545V41.6373H48.1086L48.0659 41.2545ZM48.0659 42.5305V42.8708H48.1086L48.0659 42.5305ZM72.8894 42.5731V42.8283H72.9321L72.8894 42.5731Z" fill="#363534"/>
<path d="M72.8894 42.8282V42.9984H72.9321L72.8894 42.8282ZM48.0659 42.8708V43.0835H48.1086L48.0659 42.8708Z" fill="#686566"/>
<path d="M72.8894 42.9984V43.1261H72.9321L72.8894 42.9984ZM78.4009 43.041V43.2537H78.4437L78.4009 43.041ZM48.0659 43.0835V43.2111H48.1086L48.0659 43.0835Z" fill="#A8A5A5"/>
<path d="M78.4012 43.2536V43.4663H78.4439L78.4012 43.2536ZM72.861 43.4097L72.8755 43.4378L72.861 43.4097ZM48.1089 43.4663V43.5939H48.1516L48.1089 43.4663Z" fill="#686566"/>
<path d="M72.8608 43.4949L72.8761 43.5232L72.8608 43.4949Z" fill="#A8A5A5"/>
<path d="M78.4011 43.4664V43.6365H78.4442L78.4011 43.4664Z" fill="#363534"/>
<path d="M48.1228 43.6224L48.1381 43.6507L48.1228 43.6224Z" fill="#A8A5A5"/>
<path d="M72.8184 43.7501L72.8336 43.7783L72.8184 43.7501Z" fill="#686566"/>
<path d="M78.3584 43.7642V43.8918H78.4015L78.3584 43.7642Z" fill="#A8A5A5"/>
<path d="M72.8184 43.8352L72.8336 43.8635L72.8184 43.8352Z" fill="#BBB8B7"/>
<path d="M48.1516 43.8917V44.0193H48.1947L48.1516 43.8917Z" fill="#868383"/>
<path d="M78.3584 43.8917V44.1043H78.4015L78.3584 43.8917Z" fill="#363534"/>
<path d="M72.7754 44.0478L72.7907 44.0761L72.7754 44.0478Z" fill="#767474"/>
<path d="M48.2083 44.1329L48.2235 44.1612L48.2083 44.1329Z" fill="#424140"/>
<path d="M48.1941 44.1894V44.317H48.2372L48.1941 44.1894Z" fill="#868383"/>
<path d="M78.3157 44.1894V44.317H78.3588L78.3157 44.1894Z" fill="#A8A5A5"/>
<path d="M72.7185 44.232V44.4021H72.7616L72.7185 44.232Z" fill="#5B5857"/>
<path d="M78.3157 44.317V44.4872H78.3588L78.3157 44.317Z" fill="#363534"/>
<path d="M48.2371 44.4446V44.5722H48.2802L48.2371 44.4446Z" fill="#868383"/>
<path d="M72.6758 44.4872V44.6148H72.7189L72.6758 44.4872Z" fill="#686566"/>
<path d="M78.2871 44.6008L78.3024 44.6291L78.2871 44.6008Z" fill="#A8A5A5"/>
<path d="M48.2798 44.6148V44.7424H48.3229L48.2798 44.6148Z" fill="#4E4C4B"/>
<path d="M78.2871 44.6859L78.3024 44.7141L78.2871 44.6859Z" fill="#686566"/>
<path d="M72.6331 44.6999V44.8275H72.6762L72.6331 44.6999Z" fill="#767474"/>
<path d="M48.2798 44.7423L48.3232 44.7843L48.2798 44.7423Z" fill="#A8A5A5"/>
<path d="M48.3225 44.8274V44.955H48.3656L48.3225 44.8274Z" fill="#4E4C4B"/>
<path d="M78.2444 44.8985L78.2597 44.9268L78.2444 44.8985Z" fill="#A8A5A5"/>
<path d="M72.6047 44.941L72.62 44.9693L72.6047 44.941Z" fill="#969394"/>
<path d="M78.2444 44.9836L78.2597 45.0119L78.2444 44.9836Z" fill="#686566"/>
<path d="M48.3792 45.1113L48.3944 45.1396L48.3792 45.1113Z" fill="#969394"/>
<path d="M72.5618 45.1113L72.577 45.1396L72.5618 45.1113Z" fill="#868383"/>
<path d="M78.2014 45.1962L78.2167 45.2245L78.2014 45.1962Z" fill="#969394"/>
<path d="M48.4077 45.2103V45.3379H48.4508L48.4077 45.2103Z" fill="#4E4C4B"/>
<path d="M42.2554 45.2528V47.5072H42.2985V45.9759L42.2554 45.2528Z" fill="#CA9763"/>
<path d="M72.519 45.2813L72.5343 45.3096L72.519 45.2813Z" fill="#868383"/>
<path d="M78.2014 45.2813L78.2167 45.3096L78.2014 45.2813Z" fill="#424140"/>
<path d="M48.4646 45.4514L48.4791 45.4803L48.4646 45.4514ZM78.1587 45.4514L78.1733 45.4803L78.1587 45.4514Z" fill="#868383"/>
<path d="M48.5076 45.6216L48.5229 45.6499L48.5076 45.6216Z" fill="#969394"/>
<path d="M72.4336 45.6216L72.4489 45.6499L72.4336 45.6216Z" fill="#BBB8B7"/>
<path d="M78.116 45.7067L78.1313 45.735L78.116 45.7067Z" fill="#686566"/>
<path d="M48.5503 45.7917L48.5656 45.82L48.5503 45.7917Z" fill="#BBB8B7"/>
<path d="M72.3481 45.8768L72.3634 45.9051L72.3481 45.8768Z" fill="#767474"/>
<path d="M48.5928 45.9194L48.608 45.9477L48.5928 45.9194Z" fill="#969394"/>
<path d="M78.0735 45.9194L78.0888 45.9477L78.0735 45.9194Z" fill="#686566"/>
<path d="M72.3054 46.047L72.3207 46.0753L72.3054 46.047Z" fill="#BBB8B7"/>
<path d="M48.6213 46.0609L48.6648 46.1029L48.6213 46.0609Z" fill="#868383"/>
<path d="M78.0308 46.132L78.0461 46.1603L78.0308 46.132Z" fill="#5B5857"/>
<path d="M48.6641 46.1886L48.7075 46.2305L48.6641 46.1886Z" fill="#767474"/>
<path d="M77.9878 46.3022L78.0031 46.3305L77.9878 46.3022Z" fill="#686566"/>
<path d="M48.707 46.3161L48.7498 46.3587L48.707 46.3161ZM48.7498 46.4437L48.7925 46.4863L48.7498 46.4437ZM77.9453 46.4722L77.9598 46.5003L77.9453 46.4722ZM72.1205 46.5288L72.1633 46.5713L72.1205 46.5288Z" fill="#767474"/>
<path d="M48.7925 46.5714L48.8359 46.6133L48.7925 46.5714Z" fill="#868383"/>
<path d="M77.9023 46.6425L77.9176 46.6708L77.9023 46.6425Z" fill="#767474"/>
<path d="M72.0776 46.6564L72.1211 46.6983L72.0776 46.6564Z" fill="#868383"/>
<path d="M48.835 46.699L48.8784 46.7409L48.835 46.699Z" fill="#969394"/>
<path d="M72.0349 46.7841L72.0784 46.826L72.0349 46.7841Z" fill="#A8A5A5"/>
<path d="M77.8458 46.7841V46.9117H77.8885L77.8458 46.7841ZM71.9924 46.8692L72.0352 46.9117L71.9924 46.8692Z" fill="#767474"/>
<path d="M48.9207 46.9117L48.9641 46.9537L48.9207 46.9117Z" fill="#868383"/>
<path d="M77.8171 46.9828L77.8324 47.0111L77.8171 46.9828Z" fill="#5B5857"/>
<path d="M71.9495 46.9967L71.9929 47.0386L71.9495 46.9967Z" fill="#969394"/>
<path d="M48.9634 47.0393L49.0069 47.0812L48.9634 47.0393Z" fill="#A8A5A5"/>
<path d="M71.9067 47.0818L71.9502 47.1237L71.9067 47.0818Z" fill="#686566"/>
<path d="M49.0061 47.1244L49.0496 47.1663L49.0061 47.1244Z" fill="#767474"/>
<path d="M77.7742 47.1529L77.7895 47.1812L77.7742 47.1529Z" fill="#4E4C4B"/>
<path d="M71.8643 47.2095L71.9077 47.2514L71.8643 47.2095Z" fill="#A8A5A5"/>
<path d="M71.8213 47.2944L71.8647 47.3364L71.8213 47.2944Z" fill="#767474"/>
<path d="M49.0916 47.337L49.135 47.379L49.0916 47.337Z" fill="#868383"/>
<path d="M49.1343 47.4221L49.1778 47.4641L49.1343 47.4221Z" fill="#686566"/>
<path d="M77.6887 47.4506L77.704 47.4789L77.6887 47.4506Z" fill="#424140"/>
<path d="M42.2554 47.5072V52.101H42.2985V48.9109L42.2554 47.5072Z" fill="#C1833E"/>
<path d="M71.7358 47.5072L71.7793 47.5491L71.7358 47.5072Z" fill="#969394"/>
<path d="M49.177 47.5498L49.2205 47.5917L49.177 47.5498Z" fill="#A8A5A5"/>
<path d="M77.6462 47.5783L77.6615 47.6066L77.6462 47.5783Z" fill="#4E4C4B"/>
<path d="M21.021 47.5923V47.9751H21.0641L21.021 47.5923Z" fill="#4E3A25"/>
<path d="M71.693 47.5923L71.7358 47.6347L71.693 47.5923ZM49.2195 47.6347L49.2622 47.6771L49.2195 47.6347Z" fill="#868383"/>
<path d="M71.6506 47.6773L71.6941 47.7192L71.6506 47.6773Z" fill="#686566"/>
<path d="M77.6035 47.7058L77.6188 47.7341L77.6035 47.7058Z" fill="#5B5857"/>
<path d="M49.2625 47.7198L49.3059 47.7618L49.2625 47.7198Z" fill="#868383"/>
<path d="M42.2126 47.7624V48.0602H42.2557L42.2126 47.7624Z" fill="#4E3A25"/>
<path d="M49.3052 47.805L49.3483 47.8475L49.3052 47.805ZM49.3483 47.89L49.3914 47.9326L49.3483 47.89Z" fill="#686566"/>
<path d="M71.5655 47.8901L71.6086 47.9326L71.5655 47.8901ZM71.5225 47.9751L71.5655 48.0177L71.5225 47.9751Z" fill="#A8A5A5"/>
<path d="M15.5093 48.0176V48.4429H15.5524L15.5093 48.0176Z" fill="#4E3A25"/>
<path d="M71.4795 48.0602L71.523 48.1021L71.4795 48.0602Z" fill="#A8A5A5"/>
<path d="M21.0637 48.1027V48.3579H21.1068L21.0637 48.1027Z" fill="#4E3A25"/>
<path d="M71.4368 48.1453L71.4802 48.1872L71.4368 48.1453Z" fill="#A8A5A5"/>
<path d="M77.4326 48.2163L77.4479 48.2446L77.4326 48.2163Z" fill="#4E4C4B"/>
<path d="M77.3899 48.3438L77.4052 48.3721L77.3899 48.3438Z" fill="#424140"/>
<path d="M71.3086 48.3579L71.3521 48.3998L71.3086 48.3579Z" fill="#686566"/>
<path d="M71.2659 48.443L71.3093 48.4849L71.2659 48.443Z" fill="#969394"/>
<path d="M49.647 48.4856L49.6904 48.5275L49.647 48.4856Z" fill="#686566"/>
<path d="M15.552 48.5705V48.8682H15.5951L15.552 48.5705Z" fill="#4E3A25"/>
<path d="M49.6895 48.5705L49.7329 48.6124L49.6895 48.5705Z" fill="#686566"/>
<path d="M42.0845 48.6131V48.7407H42.1276L42.0845 48.6131Z" fill="#4E3A25"/>
<path d="M49.7324 48.6556L49.7759 48.6976L49.7324 48.6556Z" fill="#868383"/>
<path d="M71.1377 48.6556L71.1812 48.6976L71.1377 48.6556Z" fill="#767474"/>
<path d="M77.2615 48.6841L77.2768 48.7124L77.2615 48.6841Z" fill="#424140"/>
<path d="M21.1489 48.6982V48.8258H21.192L21.1489 48.6982Z" fill="#4E3A25"/>
<path d="M49.7751 48.7408L49.8179 48.7831L49.7751 48.7408ZM71.0951 48.7408L71.1378 48.7831L71.0951 48.7408Z" fill="#A8A5A5"/>
<path d="M42.0417 48.7833V48.9109H42.0848L42.0417 48.7833Z" fill="#4E3A25"/>
<path d="M77.2048 48.7833L77.2483 48.8252L77.2048 48.7833Z" fill="#767474"/>
<path d="M71.0095 48.8684L71.053 48.9103L71.0095 48.8684Z" fill="#686566"/>
<path d="M77.1621 48.8684L77.2056 48.9103L77.1621 48.8684Z" fill="#A8A5A5"/>
<path d="M21.1918 48.9108V49.0384H21.2345L21.1918 48.9108ZM15.5947 48.9534V49.1235H15.6375L15.5947 48.9534Z" fill="#4E3A25"/>
<path d="M49.9033 48.9534L49.9468 48.9953L49.9033 48.9534Z" fill="#767474"/>
<path d="M70.967 48.9534L71.0105 48.9953L70.967 48.9534Z" fill="#A8A5A5"/>
<path d="M77.1191 48.9959L77.1626 49.0379L77.1191 48.9959Z" fill="#767474"/>
<path d="M49.946 49.0385L49.9895 49.0804L49.946 49.0385Z" fill="#A8A5A5"/>
<path d="M70.8813 49.081L70.9248 49.123L70.8813 49.081Z" fill="#868383"/>
<path d="M77.0764 49.081L77.1199 49.123L77.0764 49.081Z" fill="#A8A5A5"/>
<path d="M50.0312 49.1661L50.074 49.2085L50.0312 49.1661ZM70.7958 49.2085L70.8385 49.2509L70.7958 49.2085ZM77.0337 49.2085L77.0764 49.2509L77.0337 49.2085Z" fill="#686566"/>
<path d="M50.0742 49.2511L50.1177 49.293L50.0742 49.2511Z" fill="#969394"/>
<path d="M76.9912 49.2936L77.0347 49.3356L76.9912 49.2936Z" fill="#868383"/>
<path d="M70.7106 49.3362L70.7533 49.3786L70.7106 49.3362ZM50.1597 49.3786L50.2024 49.421L50.1597 49.3786Z" fill="#686566"/>
<path d="M76.9485 49.3788L76.9912 49.4213L76.9485 49.3788ZM70.6679 49.4213L70.7106 49.4639L70.6679 49.4213ZM50.2024 49.4639L50.2451 49.5064L50.2024 49.4639Z" fill="#A8A5A5"/>
<path d="M76.9055 49.5063L76.949 49.5482L76.9055 49.5063Z" fill="#686566"/>
<path d="M70.5823 49.5488L70.6257 49.5908L70.5823 49.5488Z" fill="#A8A5A5"/>
<path d="M50.2878 49.5914L50.3313 49.6333L50.2878 49.5914Z" fill="#969394"/>
<path d="M70.5396 49.5914L70.583 49.6333L70.5396 49.5914Z" fill="#686566"/>
<path d="M76.863 49.5914L76.9065 49.6333L76.863 49.5914Z" fill="#868383"/>
<path d="M76.8203 49.6765L76.8638 49.7184L76.8203 49.6765Z" fill="#969394"/>
<path d="M50.3733 49.7191L50.4168 49.761L50.3733 49.7191Z" fill="#767474"/>
<path d="M70.4541 49.7191L70.4976 49.761L70.4541 49.7191Z" fill="#686566"/>
<path d="M76.7776 49.7616L76.821 49.8035L76.7776 49.7616Z" fill="#A8A5A5"/>
<path d="M50.4587 49.8466L50.5022 49.8885L50.4587 49.8466Z" fill="#686566"/>
<path d="M70.3687 49.8466L70.4121 49.8885L70.3687 49.8466Z" fill="#868383"/>
<path d="M50.5442 49.9742L50.5877 50.0162L50.5442 49.9742Z" fill="#767474"/>
<path d="M15.7656 50.0168V50.1444H15.8087L15.7656 50.0168Z" fill="#4E3A25"/>
<path d="M70.2405 50.0168L70.2832 50.0592L70.2405 50.0168ZM76.6493 50.0592L76.692 50.1016L76.6493 50.0592Z" fill="#686566"/>
<path d="M50.6296 50.1019L50.6731 50.1439L50.6296 50.1019Z" fill="#767474"/>
<path d="M70.1553 50.1443L70.1987 50.1862L70.1553 50.1443Z" fill="#A8A5A5"/>
<path d="M76.6066 50.1443L76.6493 50.1867L76.6066 50.1443ZM70.1123 50.1867L70.155 50.2291L70.1123 50.1867Z" fill="#686566"/>
<path d="M50.7151 50.2294L50.7586 50.2714L50.7151 50.2294Z" fill="#969394"/>
<path d="M76.564 50.2294L76.6074 50.2714L76.564 50.2294Z" fill="#686566"/>
<path d="M70.0269 50.3145L70.0703 50.3565L70.0269 50.3145Z" fill="#A8A5A5"/>
<path d="M76.5212 50.3145L76.5647 50.3565L76.5212 50.3145Z" fill="#686566"/>
<path d="M69.9841 50.3571L70.0276 50.399L69.9841 50.3571Z" fill="#767474"/>
<path d="M50.8433 50.3996L50.886 50.4422L50.8433 50.3996ZM76.4785 50.3996L76.5212 50.4422L76.4785 50.3996ZM76.4358 50.4847L76.4785 50.5272L76.4358 50.4847Z" fill="#686566"/>
<path d="M50.9287 50.5272L50.9714 50.5695L50.9287 50.5272ZM69.8561 50.5272L69.8988 50.5695L69.8561 50.5272Z" fill="#969394"/>
<path d="M69.8132 50.5697L69.856 50.6122L69.8132 50.5697ZM76.393 50.5697L76.4357 50.6122L76.393 50.5697ZM76.3502 50.6548L76.393 50.6973L76.3502 50.6548Z" fill="#686566"/>
<path d="M51.0566 50.6974L51.0994 50.7399L51.0566 50.6974ZM69.6422 50.7825L69.6849 50.825L69.6422 50.7825ZM51.1848 50.8675L51.2275 50.9101L51.1848 50.8675Z" fill="#868383"/>
<path d="M76.2221 50.8675L76.2649 50.91L76.2221 50.8675ZM76.1794 50.9525L76.2221 50.9951L76.1794 50.9525ZM51.3132 51.0376L51.356 51.0801L51.3132 51.0376Z" fill="#A8A5A5"/>
<path d="M76.1367 51.0377L76.1802 51.0796L76.1367 51.0377Z" fill="#868383"/>
<path d="M51.356 51.0802L51.3994 51.1222L51.356 51.0802Z" fill="#767474"/>
<path d="M69.386 51.0802L69.4287 51.1226L69.386 51.0802ZM69.3433 51.1226L69.386 51.165L69.3433 51.1226Z" fill="#868383"/>
<path d="M76.094 51.1227L76.1375 51.1646L76.094 51.1227Z" fill="#686566"/>
<path d="M51.5269 51.2928L51.5703 51.3348L51.5269 51.2928Z" fill="#969394"/>
<path d="M51.5696 51.3354L51.613 51.3774L51.5696 51.3354Z" fill="#868383"/>
<path d="M75.9658 51.3354L76.0093 51.3774L75.9658 51.3354Z" fill="#969394"/>
<path d="M51.6123 51.378L51.6558 51.4199L51.6123 51.378Z" fill="#767474"/>
<path d="M75.9229 51.4205L75.9663 51.4624L75.9229 51.4205Z" fill="#686566"/>
<path d="M75.8376 51.548L75.8811 51.59L75.8376 51.548Z" fill="#A8A5A5"/>
<path d="M75.7949 51.6332L75.8384 51.6751L75.7949 51.6332Z" fill="#767474"/>
<path d="M75.7092 51.7607L75.7527 51.8026L75.7092 51.7607Z" fill="#A8A5A5"/>
<path d="M75.6667 51.8458L75.7102 51.8877L75.6667 51.8458Z" fill="#686566"/>
<path d="M75.5813 51.9734L75.6248 52.0154L75.5813 51.9734Z" fill="#969394"/>
<path d="M68.4033 52.0584L68.4468 52.1003L68.4033 52.0584Z" fill="#686566"/>
<path d="M68.3608 52.101L68.4043 52.1429L68.3608 52.101Z" fill="#868383"/>
<path d="M75.4956 52.101L75.5391 52.1429L75.4956 52.101Z" fill="#A8A5A5"/>
<path d="M68.3179 52.1435L68.3613 52.1854L68.3179 52.1435Z" fill="#969394"/>
<path d="M75.4531 52.1861L75.4966 52.228L75.4531 52.1861Z" fill="#686566"/>
<path d="M52.5095 52.2712L52.5522 52.3136L52.5095 52.2712ZM52.5522 52.3136L52.595 52.3559L52.5522 52.3136Z" fill="#868383"/>
<path d="M75.3674 52.3137L75.4109 52.3556L75.3674 52.3137Z" fill="#767474"/>
<path d="M68.0615 52.3563L68.105 52.3982L68.0615 52.3563Z" fill="#868383"/>
<path d="M68.0188 52.3987L68.0623 52.4406L68.0188 52.3987Z" fill="#A8A5A5"/>
<path d="M75.2822 52.4412L75.3257 52.4832L75.2822 52.4412Z" fill="#767474"/>
<path d="M67.8479 52.5264L67.8914 52.5683L67.8479 52.5264Z" fill="#686566"/>
<path d="M52.8513 52.5689L52.8948 52.6108L52.8513 52.5689Z" fill="#868383"/>
<path d="M67.8052 52.5689L67.8486 52.6108L67.8052 52.5689Z" fill="#969394"/>
<path d="M75.1968 52.5689L75.2402 52.6108L75.1968 52.5689Z" fill="#767474"/>
<path d="M67.6343 52.6964L67.6777 52.7384L67.6343 52.6964Z" fill="#868383"/>
<path d="M75.1111 52.6964L75.1546 52.7384L75.1111 52.6964Z" fill="#767474"/>
<path d="M53.0649 52.739L53.1084 52.7809L53.0649 52.739Z" fill="#686566"/>
<path d="M53.1077 52.7815L53.1511 52.8235L53.1077 52.7815Z" fill="#A8A5A5"/>
<path d="M67.4634 52.8241L67.5068 52.866L67.4634 52.8241Z" fill="#868383"/>
<path d="M75.0259 52.8241L75.0694 52.866L75.0259 52.8241Z" fill="#686566"/>
<path d="M53.2786 52.9092L53.322 52.9512L53.2786 52.9092Z" fill="#868383"/>
<path d="M67.2925 52.9518L67.3352 52.9941L67.2925 52.9518ZM74.8976 52.9941L74.9403 53.0365L74.8976 52.9941Z" fill="#A8A5A5"/>
<path d="M53.4495 53.0367L53.4929 53.0786L53.4495 53.0367Z" fill="#868383"/>
<path d="M67.1643 53.0367L67.2078 53.0786L67.1643 53.0367Z" fill="#969394"/>
<path d="M53.5776 53.1219L53.6211 53.1638L53.5776 53.1219Z" fill="#686566"/>
<path d="M67.0361 53.1219L67.0796 53.1638L67.0361 53.1219Z" fill="#969394"/>
<path d="M74.8123 53.1219L74.8557 53.1638L74.8123 53.1219Z" fill="#767474"/>
<path d="M53.6204 53.1644L53.6638 53.2063L53.6204 53.1644Z" fill="#A8A5A5"/>
<path d="M66.908 53.207L66.9507 53.2494L66.908 53.207ZM53.7485 53.2494L53.7913 53.2917L53.7485 53.2494Z" fill="#969394"/>
<path d="M66.7798 53.2921L66.8233 53.334L66.7798 53.2921Z" fill="#A8A5A5"/>
<path d="M74.684 53.2921L74.7267 53.3344L74.684 53.2921ZM53.8767 53.3344L53.9194 53.3768L53.8767 53.3344Z" fill="#969394"/>
<path d="M66.6943 53.3345L66.7378 53.3764L66.6943 53.3345Z" fill="#686566"/>
<path d="M54.0049 53.4196L54.0476 53.462L54.0049 53.4196ZM66.5661 53.4196L66.6089 53.462L66.5661 53.4196Z" fill="#A8A5A5"/>
<path d="M74.5986 53.4196L74.6421 53.4616L74.5986 53.4196Z" fill="#686566"/>
<path d="M66.4807 53.4622L66.5242 53.5041L66.4807 53.4622Z" fill="#767474"/>
<path d="M74.5557 53.4622L74.5991 53.5041L74.5557 53.4622Z" fill="#A8A5A5"/>
<path d="M54.2185 53.5472L54.262 53.5892L54.2185 53.5472Z" fill="#767474"/>
<path d="M66.2671 53.5898L66.3106 53.6318L66.2671 53.5898Z" fill="#A8A5A5"/>
<path d="M74.4702 53.5898L74.5137 53.6318L74.4702 53.5898Z" fill="#686566"/>
<path d="M54.3467 53.6322L54.3901 53.6742L54.3467 53.6322Z" fill="#A8A5A5"/>
<path d="M66.1816 53.6322L66.2251 53.6742L66.1816 53.6322Z" fill="#868383"/>
<path d="M74.4277 53.6322L74.4712 53.6742L74.4277 53.6322Z" fill="#A8A5A5"/>
<path d="M54.4321 53.6747L54.4756 53.7167L54.4321 53.6747Z" fill="#868383"/>
<path d="M66.0962 53.6747L66.1389 53.7173L66.0962 53.6747ZM54.5176 53.7173L54.5603 53.7598L54.5176 53.7173ZM66.0107 53.7173L66.0534 53.7598L66.0107 53.7173ZM65.9253 53.7598L65.968 53.8024L65.9253 53.7598ZM65.8398 53.8024L65.8825 53.8449L65.8398 53.8024Z" fill="#686566"/>
<path d="M74.2996 53.8024L74.343 53.8444L74.2996 53.8024Z" fill="#868383"/>
<path d="M54.7312 53.845L54.7747 53.8869L54.7312 53.845Z" fill="#A8A5A5"/>
<path d="M65.7544 53.845L65.7979 53.8869L65.7544 53.845Z" fill="#686566"/>
<path d="M54.8167 53.8875L54.8601 53.9295L54.8167 53.8875Z" fill="#868383"/>
<path d="M65.6689 53.8875L65.7124 53.9295L65.6689 53.8875Z" fill="#686566"/>
<path d="M54.9021 53.9301L54.9456 53.972L54.9021 53.9301Z" fill="#868383"/>
<path d="M65.5835 53.9301L65.627 53.972L65.5835 53.9301Z" fill="#686566"/>
<path d="M42.2126 53.9725V57.4179H42.2557V55.0359L42.2126 53.9725Z" fill="#C1833E"/>
<path d="M54.9875 53.9725L55.0303 54.0149L54.9875 53.9725ZM65.498 53.9725L65.5407 54.0149L65.498 53.9725Z" fill="#868383"/>
<path d="M74.1714 53.9725L74.2148 54.0144L74.1714 53.9725Z" fill="#767474"/>
<path d="M55.073 54.015L55.1165 54.057L55.073 54.015Z" fill="#868383"/>
<path d="M65.4126 54.015L65.4553 54.0574L65.4126 54.015ZM74.1286 54.015L74.1713 54.0574L74.1286 54.015Z" fill="#A8A5A5"/>
<path d="M55.1584 54.0576L55.2019 54.0996L55.1584 54.0576Z" fill="#868383"/>
<path d="M55.2439 54.1002L55.2874 54.1421L55.2439 54.1002Z" fill="#A8A5A5"/>
<path d="M65.199 54.1002L65.2424 54.1421L65.199 54.1002Z" fill="#686566"/>
<path d="M65.1135 54.1427L65.157 54.1847L65.1135 54.1427Z" fill="#969394"/>
<path d="M74.0002 54.1853L74.0437 54.2272L74.0002 54.1853Z" fill="#767474"/>
<path d="M55.543 54.2278L55.5864 54.2698L55.543 54.2278Z" fill="#868383"/>
<path d="M64.8999 54.2278L64.9434 54.2698L64.8999 54.2278Z" fill="#969394"/>
<path d="M73.9578 54.2278L74.0006 54.2702L73.9578 54.2278ZM55.6287 54.2702L55.6714 54.3126L55.6287 54.2702Z" fill="#A8A5A5"/>
<path d="M64.7717 54.2702L64.8152 54.3122L64.7717 54.2702Z" fill="#767474"/>
<path d="M55.8706 54.3694L55.8993 54.3844L55.8706 54.3694Z" fill="#4E4C4B"/>
<path d="M64.5581 54.3553L64.6016 54.3973L64.5581 54.3553Z" fill="#969394"/>
<path d="M64.4299 54.3979L64.4727 54.4403L64.4299 54.3979ZM64.3018 54.4403L64.3445 54.4827L64.3018 54.4403ZM73.7868 54.4403L73.8295 54.4827L73.7868 54.4403Z" fill="#868383"/>
<path d="M56.1838 54.483L56.2273 54.525L56.1838 54.483Z" fill="#A8A5A5"/>
<path d="M56.3406 54.5395L56.3693 54.5545L56.3406 54.5395Z" fill="#4E4C4B"/>
<path d="M64.0312 54.5395L64.0599 54.5545L64.0312 54.5395Z" fill="#969394"/>
<path d="M56.4688 54.582L56.4974 54.597L56.4688 54.582Z" fill="#4E4C4B"/>
<path d="M63.9031 54.582L63.9318 54.597L63.9031 54.582Z" fill="#BBB8B7"/>
<path d="M47.8953 54.6105L47.938 54.6529L47.8953 54.6105ZM63.7323 54.6245L63.7605 54.6389L63.7323 54.6245Z" fill="#969394"/>
<path d="M56.7681 54.6671L56.7968 54.6822L56.7681 54.6671Z" fill="#424140"/>
<path d="M63.5613 54.6671L63.59 54.6822L63.5613 54.6671Z" fill="#868383"/>
<path d="M27.5581 54.6956V54.738H27.6863L27.5581 54.6956ZM35.5477 54.6956V54.738H35.6759L35.5477 54.6956Z" fill="#4E3A25"/>
<path d="M56.896 54.7097L56.9247 54.7247L56.896 54.7097Z" fill="#5B5857"/>
<path d="M63.3904 54.7096L63.4186 54.7241L63.3904 54.7096ZM73.5731 54.6956L73.6158 54.738L73.5731 54.6956Z" fill="#868383"/>
<path d="M35.3337 54.7382V54.7806H35.4619L35.3337 54.7382Z" fill="#4E3A25"/>
<path d="M47.9805 54.7382L48.0239 54.7801L47.9805 54.7382Z" fill="#686566"/>
<path d="M57.0671 54.7523L57.0958 54.7673L57.0671 54.7523Z" fill="#4E4C4B"/>
<path d="M63.2195 54.7523L63.2482 54.7673L63.2195 54.7523Z" fill="#868383"/>
<path d="M73.5305 54.7382L73.5732 54.7806L73.5305 54.7382ZM48.0234 54.7806L48.0662 54.823L48.0234 54.7806Z" fill="#A8A5A5"/>
<path d="M57.238 54.7948L57.2667 54.8098L57.238 54.7948Z" fill="#5B5857"/>
<path d="M62.9773 54.7808V54.8232H63.1055L62.9773 54.7808ZM57.4089 54.8371L57.4371 54.8516L57.4089 54.8371Z" fill="#686566"/>
<path d="M62.835 54.8372L62.8636 54.8522L62.835 54.8372Z" fill="#969394"/>
<path d="M28.4978 54.8659V54.9083H28.7542L28.4978 54.8659Z" fill="#4E3A25"/>
<path d="M34.4368 54.8659V54.9083H34.6077L34.4368 54.8659Z" fill="#574128"/>
<path d="M57.6226 54.8798L57.6512 54.8948L57.6226 54.8798Z" fill="#686566"/>
<path d="M62.5073 54.8659V54.9083H62.6355L62.5073 54.8659Z" fill="#4E4C4B"/>
<path d="M28.8823 54.9083V54.9506H29.2241L28.8823 54.9083ZM34.0094 54.9083V54.9506H34.3084L34.0094 54.9083Z" fill="#4E3A25"/>
<path d="M57.8359 54.9224L57.8646 54.9374L57.8359 54.9224Z" fill="#686566"/>
<path d="M62.251 54.9083V54.9506H62.3791L62.251 54.9083Z" fill="#4E4C4B"/>
<path d="M29.3523 54.9508V54.9932H29.865L29.3523 54.9508ZM33.4112 54.9508V54.9932H33.8812L33.4112 54.9508Z" fill="#4E3A25"/>
<path d="M48.1516 54.9508L48.1943 54.9932L48.1516 54.9508ZM58.0498 54.9648L58.078 54.9792L58.0498 54.9648Z" fill="#969394"/>
<path d="M58.1064 54.9508V54.9932H58.2346L58.1064 54.9508Z" fill="#4E4C4B"/>
<path d="M61.9805 54.9649L62.0092 54.9799L61.9805 54.9649Z" fill="#424140"/>
<path d="M62.0374 54.9508V54.9932H62.1655L62.0374 54.9508Z" fill="#868383"/>
<path d="M30.1213 54.9934V55.0358H31.3604L30.1213 54.9934ZM32.2576 54.9934V55.0358H33.0267L32.2576 54.9934Z" fill="#2B231A"/>
<path d="M58.3486 55.0074L58.3773 55.0224L58.3486 55.0074Z" fill="#969394"/>
<path d="M58.4055 54.9934V55.0358H58.5764L58.4055 54.9934Z" fill="#2B2A2A"/>
<path d="M61.7241 55.0074L61.7528 55.0224L61.7241 55.0074Z" fill="#767474"/>
<path d="M61.8096 55.0074L61.8383 55.0224L61.8096 55.0074Z" fill="#BBB8B7"/>
<path d="M73.3167 54.9934L73.3601 55.0353L73.3167 54.9934Z" fill="#767474"/>
<path d="M58.6907 55.05L58.7194 55.065L58.6907 55.05Z" fill="#A8A5A5"/>
<path d="M58.7473 55.0359V55.0783H59.0037L58.7473 55.0359ZM61.0545 55.0359V55.0783H61.3536L61.0545 55.0359Z" fill="#363534"/>
<path d="M61.3535 55.0359V55.0783H61.4817L61.3535 55.0359Z" fill="#A8A5A5"/>
<path d="M73.2739 55.0359L73.3174 55.0779L73.2739 55.0359Z" fill="#868383"/>
<path d="M59.1318 55.0785V55.1209H59.3455L59.1318 55.0785Z" fill="#A8A5A5"/>
<path d="M59.3455 55.0785V55.1209H59.6018L59.3455 55.0785Z" fill="#686566"/>
<path d="M59.6021 55.0785V55.1209H60.4138L59.6021 55.0785Z" fill="#363534"/>
<path d="M60.4138 55.0785V55.1209H60.7129L60.4138 55.0785Z" fill="#686566"/>
<path d="M60.7126 55.0785V55.1209H60.9263L60.7126 55.0785Z" fill="#A8A5A5"/>
<path d="M48.2798 55.121L48.3225 55.1636L48.2798 55.121ZM48.4507 55.3337L48.4934 55.3762L48.4507 55.3337Z" fill="#868383"/>
<path d="M48.4934 55.3763L48.5369 55.4182L48.4934 55.3763Z" fill="#A8A5A5"/>
<path d="M48.6641 55.5889L48.7075 55.6308L48.6641 55.5889Z" fill="#868383"/>
<path d="M48.707 55.6314L48.7505 55.6733L48.707 55.6314Z" fill="#A8A5A5"/>
<path d="M72.5906 55.7165L72.634 55.7585L72.5906 55.7165Z" fill="#969394"/>
<path d="M72.5476 55.7591L72.5903 55.8015L72.5476 55.7591ZM72.5049 55.8015L72.5476 55.8439L72.5049 55.8015Z" fill="#868383"/>
<path d="M48.9207 55.8866L48.9641 55.9285L48.9207 55.8866Z" fill="#686566"/>
<path d="M48.9634 55.9292L49.0061 55.9715L48.9634 55.9292ZM49.0061 55.9715L49.0488 56.0139L49.0061 55.9715Z" fill="#868383"/>
<path d="M72.2061 56.0568L72.2495 56.0988L72.2061 56.0568Z" fill="#A8A5A5"/>
<path d="M72.1631 56.0994L72.2066 56.1413L72.1631 56.0994Z" fill="#868383"/>
<path d="M72.1204 56.1419L72.1638 56.1839L72.1204 56.1419Z" fill="#686566"/>
<path d="M71.9067 56.312L71.9502 56.354L71.9067 56.312Z" fill="#A8A5A5"/>
<path d="M71.8643 56.3546L71.9077 56.3965L71.8643 56.3546Z" fill="#868383"/>
<path d="M71.6506 56.5246L71.6941 56.5666L71.6506 56.5246Z" fill="#969394"/>
<path d="M71.6077 56.5672L71.6511 56.6091L71.6077 56.5672Z" fill="#686566"/>
<path d="M71.4368 56.6948L71.4802 56.7368L71.4368 56.6948Z" fill="#969394"/>
<path d="M71.394 56.7374L71.4375 56.7793L71.394 56.7374Z" fill="#686566"/>
<path d="M71.2232 56.8649L71.2659 56.9074L71.2232 56.8649ZM71.0522 56.9925L71.095 57.035L71.0522 56.9925Z" fill="#868383"/>
<path d="M50.0742 57.0352L50.1177 57.0771L50.0742 57.0352Z" fill="#969394"/>
<path d="M50.1169 57.0777L50.1604 57.1196L50.1169 57.0777Z" fill="#868383"/>
<path d="M50.1597 57.1202L50.2031 57.1622L50.1597 57.1202Z" fill="#767474"/>
<path d="M70.8813 57.1202L70.9248 57.1622L70.8813 57.1202Z" fill="#868383"/>
<path d="M70.7104 57.2478L70.7539 57.2897L70.7104 57.2478Z" fill="#686566"/>
<path d="M50.4158 57.3329L50.4593 57.3748L50.4158 57.3329Z" fill="#A8A5A5"/>
<path d="M70.5823 57.3329L70.6257 57.3748L70.5823 57.3329Z" fill="#969394"/>
<path d="M50.4587 57.3754L50.5022 57.4173L50.4587 57.3754Z" fill="#868383"/>
<path d="M70.4541 57.418L70.4976 57.4599L70.4541 57.418Z" fill="#A8A5A5"/>
<path d="M50.6724 57.5455L50.7158 57.5875L50.6724 57.5455Z" fill="#969394"/>
<path d="M70.2833 57.5455L70.326 57.5881L70.2833 57.5455ZM50.7151 57.5881L50.7578 57.6306L50.7151 57.5881ZM70.1551 57.6306L70.1979 57.6731L70.1551 57.6306Z" fill="#686566"/>
<path d="M50.886 57.7157L50.9295 57.7577L50.886 57.7157Z" fill="#969394"/>
<path d="M70.0269 57.7157L70.0703 57.7577L70.0269 57.7157Z" fill="#686566"/>
<path d="M51.0566 57.8432L51.0994 57.8856L51.0566 57.8432ZM69.8131 57.8432L69.8558 57.8856L69.8131 57.8432Z" fill="#A8A5A5"/>
<path d="M51.0996 57.8858L51.1431 57.9277L51.0996 57.8858Z" fill="#686566"/>
<path d="M69.6851 57.9283L69.7285 57.9703L69.6851 57.9283Z" fill="#868383"/>
<path d="M51.2278 57.9709L51.2712 58.0129L51.2278 57.9709Z" fill="#969394"/>
<path d="M69.5569 58.0135L69.6004 58.0554L69.5569 58.0135Z" fill="#686566"/>
<path d="M69.4714 58.056L69.5149 58.098L69.4714 58.056Z" fill="#969394"/>
<path d="M51.3987 58.0984L51.4421 58.1404L51.3987 58.0984Z" fill="#767474"/>
<path d="M69.3433 58.141L69.3867 58.1829L69.3433 58.141Z" fill="#686566"/>
<path d="M51.5269 58.1835L51.5703 58.2255L51.5269 58.1835Z" fill="#868383"/>
<path d="M69.2579 58.1835L69.3006 58.2261L69.2579 58.1835ZM51.655 58.2686L51.6978 58.3111L51.655 58.2686Z" fill="#969394"/>
<path d="M69.0442 58.3112L69.0877 58.3531L69.0442 58.3112Z" fill="#686566"/>
<path d="M51.7832 58.3538L51.8259 58.3962L51.7832 58.3538ZM68.9588 58.3538L69.0015 58.3962L68.9588 58.3538Z" fill="#969394"/>
<path d="M68.8733 58.3962L68.9168 58.4381L68.8733 58.3962Z" fill="#A8A5A5"/>
<path d="M51.9114 58.4387L51.9549 58.4807L51.9114 58.4387Z" fill="#767474"/>
<path d="M52.0396 58.5238L52.0823 58.5662L52.0396 58.5238ZM68.6597 58.5238L68.7024 58.5662L68.6597 58.5238Z" fill="#686566"/>
<path d="M52.125 58.5664L52.1685 58.6083L52.125 58.5664Z" fill="#A8A5A5"/>
<path d="M68.5742 58.5664L68.6169 58.6088L68.5742 58.5664ZM68.4888 58.6088L68.5315 58.6512L68.4888 58.6088Z" fill="#868383"/>
<path d="M52.2532 58.6515L52.2966 58.6934L52.2532 58.6515Z" fill="#686566"/>
<path d="M68.4033 58.6515L68.4468 58.6934L68.4033 58.6515Z" fill="#868383"/>
<path d="M52.3386 58.694L52.3821 58.736L52.3386 58.694Z" fill="#969394"/>
<path d="M68.3179 58.694L68.3606 58.7366L68.3179 58.694ZM68.2324 58.7366L68.2751 58.7791L68.2324 58.7366ZM68.147 58.7791L68.1897 58.8217L68.147 58.7791Z" fill="#A8A5A5"/>
<path d="M52.5522 58.8216L52.5957 58.8635L52.5522 58.8216Z" fill="#767474"/>
<path d="M68.0615 58.8216L68.105 58.8635L68.0615 58.8216Z" fill="#A8A5A5"/>
<path d="M52.6377 58.8641L52.6804 58.9065L52.6377 58.8641ZM67.9761 58.8641L68.0188 58.9065L67.9761 58.8641Z" fill="#868383"/>
<path d="M52.7231 58.9067L52.7666 58.9486L52.7231 58.9067Z" fill="#A8A5A5"/>
<path d="M67.8906 58.9067L67.9341 58.9486L67.8906 58.9067Z" fill="#868383"/>
<path d="M67.8052 58.9492L67.8486 58.9912L67.8052 58.9492Z" fill="#767474"/>
<path d="M67.7197 58.9918L67.7632 59.0337L67.7197 58.9918Z" fill="#686566"/>
<path d="M67.5061 59.0767L67.5496 59.1187L67.5061 59.0767Z" fill="#A8A5A5"/>
<path d="M53.1077 59.1193L53.1511 59.1612L53.1077 59.1193Z" fill="#686566"/>
<path d="M53.4922 59.2895L53.5357 59.3315L53.4922 59.2895Z" fill="#A8A5A5"/>
<path d="M67.0361 59.2895L67.0796 59.3315L67.0361 59.2895Z" fill="#686566"/>
<path d="M53.5776 59.3321L53.6211 59.374L53.5776 59.3321Z" fill="#868383"/>
<path d="M66.9368 59.346L66.9655 59.361L66.9368 59.346Z" fill="#424140"/>
<path d="M53.6628 59.3745L53.7063 59.4164L53.6628 59.3745Z" fill="#767474"/>
<path d="M66.7231 59.4311L66.7518 59.4461L66.7231 59.4311Z" fill="#424140"/>
<path d="M53.8767 59.4596L53.9202 59.5015L53.8767 59.4596Z" fill="#A8A5A5"/>
<path d="M53.9622 59.5022L54.0056 59.5441L53.9622 59.5022Z" fill="#767474"/>
<path d="M66.3813 59.5588L66.41 59.5738L66.3813 59.5588Z" fill="#424140"/>
<path d="M54.1758 59.5872L54.2192 59.6292L54.1758 59.5872Z" fill="#868383"/>
<path d="M66.2243 59.5872L66.2671 59.6296L66.2243 59.5872ZM54.304 59.6296L54.3467 59.672L54.304 59.6296Z" fill="#A8A5A5"/>
<path d="M54.3894 59.6722L54.4329 59.7141L54.3894 59.6722Z" fill="#686566"/>
<path d="M54.5176 59.7148L54.561 59.7567L54.5176 59.7148Z" fill="#868383"/>
<path d="M54.6458 59.7573L54.6892 59.7992L54.6458 59.7573Z" fill="#969394"/>
<path d="M25.4216 59.7999V59.8423H25.5498L25.4216 59.7999Z" fill="#4E3A25"/>
<path d="M54.7739 59.7999L54.8174 59.8418L54.7739 59.7999Z" fill="#969394"/>
<path d="M65.6121 59.814L65.6408 59.829L65.6121 59.814Z" fill="#5B5857"/>
<path d="M54.9021 59.8424L54.9456 59.8844L54.9021 59.8424Z" fill="#969394"/>
<path d="M65.4839 59.8565L65.5126 59.8715L65.4839 59.8565Z" fill="#4E4C4B"/>
<path d="M55.0303 59.885L55.0738 59.927L55.0303 59.885Z" fill="#969394"/>
<path d="M65.313 59.899L65.3417 59.9141L65.313 59.899Z" fill="#767474"/>
<path d="M25.9343 59.9276V59.9699H26.0625L25.9343 59.9276ZM36.3593 59.9276V59.9699H36.4875L36.3593 59.9276Z" fill="#4E3A25"/>
<path d="M55.1443 59.9415L55.173 59.9565L55.1443 59.9415Z" fill="#868383"/>
<path d="M65.1848 59.9415L65.2135 59.9565L65.1848 59.9415Z" fill="#5B5857"/>
<path d="M55.2725 59.984L55.3007 59.9992L55.2725 59.984ZM65.0139 59.984L65.042 59.9992L65.0139 59.984Z" fill="#767474"/>
<path d="M35.9749 60.0126V60.0549H36.103L35.9749 60.0126Z" fill="#4E3A25"/>
<path d="M55.4434 60.0266L55.472 60.0416L55.4434 60.0266Z" fill="#A8A5A5"/>
<path d="M64.8857 60.0266L64.9144 60.0416L64.8857 60.0266Z" fill="#4E4C4B"/>
<path d="M55.5718 60.0691L55.6005 60.0842L55.5718 60.0691Z" fill="#767474"/>
<path d="M64.7148 60.0691L64.7435 60.0842L64.7148 60.0691Z" fill="#4E4C4B"/>
<path d="M55.7424 60.1117L55.7711 60.1267L55.7424 60.1117Z" fill="#868383"/>
<path d="M64.5439 60.1117L64.5726 60.1267L64.5439 60.1117Z" fill="#4E4C4B"/>
<path d="M55.9136 60.1543L55.9423 60.1693L55.9136 60.1543Z" fill="#969394"/>
<path d="M64.3018 60.1402V60.1826H64.4299L64.3018 60.1402Z" fill="#767474"/>
<path d="M27.2161 60.1828V60.2251H27.387L27.2161 60.1828Z" fill="#4E3A25"/>
<path d="M56.0845 60.1968L56.1132 60.2118L56.0845 60.1968Z" fill="#868383"/>
<path d="M64.1594 60.1968L64.1881 60.2118L64.1594 60.1968Z" fill="#686566"/>
<path d="M56.2266 60.2253V60.2677H56.3547L56.2266 60.2253ZM63.9458 60.2393L63.9739 60.2537L63.9458 60.2393Z" fill="#767474"/>
<path d="M56.3975 60.2678V60.3102H56.5257L56.3975 60.2678Z" fill="#5B5857"/>
<path d="M63.7322 60.2818L63.7609 60.2968L63.7322 60.2818Z" fill="#767474"/>
<path d="M34.1375 60.3103V60.3526H34.3938L34.1375 60.3103Z" fill="#4E3A25"/>
<path d="M56.6538 60.3103V60.3526H56.782L56.6538 60.3103Z" fill="#969394"/>
<path d="M63.49 60.3103V60.3526H63.6182L63.49 60.3103Z" fill="#686566"/>
<path d="M28.4124 60.3528V60.3952H28.7114L28.4124 60.3528ZM33.7958 60.3528V60.3952H34.0521L33.7958 60.3528Z" fill="#4E3A25"/>
<path d="M56.8247 60.3528V60.3952H56.9956L56.8247 60.3528Z" fill="#5B5857"/>
<path d="M63.2336 60.3528V60.3952H63.3618L63.2336 60.3528Z" fill="#767474"/>
<path d="M28.7969 60.3954V60.4378H29.1814L28.7969 60.3954ZM33.3685 60.3954V60.4378H33.6676L33.3685 60.3954Z" fill="#4E3A25"/>
<path d="M57.1238 60.3954V60.4378H57.252L57.1238 60.3954Z" fill="#868383"/>
<path d="M62.9631 60.4094L62.9918 60.4244L62.9631 60.4094Z" fill="#A8A5A5"/>
<path d="M63.02 60.3954V60.4378H63.1482L63.02 60.3954Z" fill="#5B5857"/>
<path d="M29.3096 60.4379V60.4803H29.7796L29.3096 60.4379Z" fill="#75512C"/>
<path d="M32.8557 60.4379V60.4803H33.2402L32.8557 60.4379Z" fill="#4E3A25"/>
<path d="M57.3374 60.4379V60.4803H57.4656L57.3374 60.4379Z" fill="#5B5857"/>
<path d="M57.4941 60.452L57.5228 60.467L57.4941 60.452Z" fill="#BBB8B7"/>
<path d="M62.6641 60.452L62.6927 60.467L62.6641 60.452Z" fill="#A8A5A5"/>
<path d="M62.7495 60.452L62.7782 60.467L62.7495 60.452Z" fill="#686566"/>
<path d="M29.9507 60.4805V60.5228H30.8052L29.9507 60.4805Z" fill="#75512C"/>
<path d="M32.0867 60.4805V60.5228H32.6848L32.0867 60.4805Z" fill="#4E3A25"/>
<path d="M57.7219 60.4805V60.5228H57.8501L57.7219 60.4805Z" fill="#868383"/>
<path d="M62.3223 60.4945L62.3509 60.5096L62.3223 60.4945Z" fill="#A8A5A5"/>
<path d="M62.3789 60.4805V60.5228H62.5925L62.3789 60.4805Z" fill="#363534"/>
<path d="M42.2554 60.5231V71.0718C42.2554 72.9281 42.0074 75.0021 42.4645 76.8141C43.0467 79.1221 45.3812 80.9826 47.767 80.9826V60.5231H42.2554Z" fill="white"/>
<path d="M58.0925 60.537L58.1212 60.552L58.0925 60.537Z" fill="#686566"/>
<path d="M58.1492 60.5231V60.5655H58.2773L58.1492 60.5231ZM61.9376 60.5371L61.9658 60.5515L61.9376 60.5371Z" fill="#A8A5A5"/>
<path d="M61.9944 60.5231V60.5655H62.2081L61.9944 60.5231ZM58.3628 60.5655V60.6078H58.6619L58.3628 60.5655Z" fill="#363534"/>
<path d="M58.6619 60.5656V60.608H58.79L58.6619 60.5656ZM61.3536 60.5656V60.608H61.4817L61.3536 60.5656Z" fill="#A8A5A5"/>
<path d="M61.4819 60.5656V60.608H61.6528L61.4819 60.5656Z" fill="#686566"/>
<path d="M58.9609 60.6082V60.6505H59.1746L58.9609 60.6082Z" fill="#363534"/>
<path d="M59.1746 60.6082V60.6505H59.4736L59.1746 60.6082Z" fill="#686566"/>
<path d="M59.4739 60.6082V60.6505H60.6274L59.4739 60.6082Z" fill="#A8A5A5"/>
<path d="M60.6272 60.6082V60.6505H60.9263L60.6272 60.6082Z" fill="#686566"/>
<path d="M42.2126 74.0067V74.9424H42.2557L42.2126 74.0067Z" fill="#686566"/>
<path d="M42.2126 74.9424V75.1126H42.2557L42.2126 74.9424Z" fill="#363534"/>
<path d="M42.2554 75.2403V75.4104H42.2985L42.2554 75.2403Z" fill="#A8A5A5"/>
<path d="M42.2554 75.4104V75.5805H42.2985L42.2554 75.4104Z" fill="#686566"/>
<path d="M42.2554 75.5805V75.7931H42.2985L42.2554 75.5805Z" fill="#363534"/>
<path d="M42.2981 75.9207V76.0483H42.3412L42.2981 75.9207Z" fill="#A8A5A5"/>
<path d="M42.2981 76.0484V76.2186H42.3412L42.2981 76.0484Z" fill="#363534"/>
<path d="M42.3552 76.3321L42.3696 76.3601L42.3552 76.3321ZM42.384 76.5162V76.6439H42.4271L42.384 76.5162Z" fill="#868383"/>
<path d="M42.4404 76.7575L42.4554 76.7858L42.4404 76.7575Z" fill="#5B5857"/>
<path d="M42.5259 77.0552L42.5409 77.0835L42.5259 77.0552Z" fill="#424140"/>
<path d="M42.6399 77.367L42.6834 77.409L42.6399 77.367Z" fill="#868383"/>
<path d="M42.6829 77.452L42.7263 77.4939L42.6829 77.452Z" fill="#A8A5A5"/>
<path d="M42.939 77.9625L42.9824 78.0044L42.939 77.9625Z" fill="#969394"/>
<path d="M42.9817 78.0477L43.0252 78.0896L42.9817 78.0477Z" fill="#686566"/>
<path d="M43.0671 78.1751L43.1099 78.2177L43.0671 78.1751ZM43.1526 78.3027L43.1953 78.3453L43.1526 78.3027Z" fill="#969394"/>
<path d="M43.238 78.4303L43.2815 78.4722L43.238 78.4303Z" fill="#868383"/>
<path d="M43.3662 78.6005L43.4097 78.6425L43.3662 78.6005Z" fill="#969394"/>
<path d="M43.4944 78.7706L43.5371 78.8131L43.4944 78.7706ZM43.708 79.0258L43.7507 79.0684L43.708 79.0258Z" fill="#868383"/>
<path d="M43.7507 79.0684L43.7935 79.1109L43.7507 79.0684ZM44.3489 79.6638L44.3916 79.7064L44.3489 79.6638Z" fill="#969394"/>
<path d="M44.3916 79.7064L44.4343 79.7489L44.3916 79.7064ZM44.6052 79.8765L44.6479 79.9191L44.6052 79.8765Z" fill="#868383"/>
<path d="M44.7761 80.0042L44.8196 80.0461L44.7761 80.0042Z" fill="#767474"/>
<path d="M44.9043 80.0893L44.9478 80.1312L44.9043 80.0893Z" fill="#969394"/>
<path d="M45.0325 80.1743L45.0752 80.2169L45.0325 80.1743ZM45.2461 80.302L45.2888 80.3445L45.2461 80.302Z" fill="#767474"/>
<path d="M45.3318 80.3444L45.3752 80.3863L45.3318 80.3444Z" fill="#868383"/>
<path d="M45.417 80.3869L45.4597 80.4293L45.417 80.3869ZM45.5024 80.4293L45.5452 80.4717L45.5024 80.4293Z" fill="#A8A5A5"/>
<path d="M45.5879 80.4721L45.6314 80.514L45.5879 80.4721Z" fill="#969394"/>
<path d="M45.6733 80.5146L45.7168 80.5566L45.6733 80.5146Z" fill="#868383"/>
<path d="M45.759 80.5572L45.8025 80.5991L45.759 80.5572Z" fill="#686566"/>
<path d="M45.8872 80.5998L45.9307 80.6417L45.8872 80.5998Z" fill="#969394"/>
<path d="M46.1008 80.6847L46.1436 80.7271L46.1008 80.6847ZM46.229 80.7271L46.2717 80.7695L46.229 80.7271Z" fill="#767474"/>
<path d="M46.3857 80.7839L46.4144 80.7989L46.3857 80.7839Z" fill="#A8A5A5"/>
<path d="M46.4851 80.8124V80.8548H46.6133L46.4851 80.8124Z" fill="#767474"/>
<path d="M46.7275 80.8689L46.7562 80.8839L46.7275 80.8689Z" fill="#A8A5A5"/>
<path d="M46.8984 80.9114L46.9271 80.9264L46.8984 80.9114Z" fill="#686566"/>
<path d="M47.0833 80.94V80.9824H47.2114L47.0833 80.94Z" fill="#4E4C4B"/>
<path d="M47.3398 80.9824V81.0248H47.5107L47.3398 80.9824Z" fill="#686566"/>
<path d="M47.5107 80.9824V81.0248H47.7671L47.5107 80.9824Z" fill="#A8A5A5"/>
</svg>
