<svg width="90" height="95" viewBox="0 0 90 95" fill="none" xmlns="http://www.w3.org/2000/svg">
<path d="M36.8046 40.952C50.2628 32.8326 62.6484 22.8522 73.6208 11.2958V18.2903H76.5079V6.09677H64.9595V9.14516H71.5753C60.7848 20.508 48.607 30.3208 35.3726 38.306L36.8046 40.952Z" fill="#00C950"/>
<path d="M79.3952 21.3387H70.7339V51.8226H67.8468V27.4355H59.1855V51.8226H56.2984V36.5807H47.6371V51.8226H44.75V42.6774H36.0888V51.8226H33.2017V54.871H82.2823V51.8226H79.3952V21.3387ZM73.621 24.3871H76.5081V51.8226H73.621V24.3871ZM62.0726 30.4839H64.9597V51.8226H62.0726V30.4839ZM50.5242 39.629H53.4113V51.8226H50.5242V39.629ZM38.9759 45.7258H41.863V51.8226H38.9759V45.7258Z" fill="#00C950"/>
<path d="M82.2823 0H21.6532C17.6734 0 14.4355 3.41877 14.4355 7.62097V48.7742H25.9839V67.0645H5.77419C2.58973 67.0645 0 69.7989 0 73.1613C0 76.5237 2.58973 79.2581 5.77419 79.2581H25.9839V94.5H89.5V7.62097C89.5 3.41877 86.2621 0 82.2823 0ZM17.3226 45.7258V7.62097C17.3226 5.09995 19.2656 3.04839 21.6532 3.04839C24.0409 3.04839 25.9839 5.09995 25.9839 7.62097V45.7258H17.3226ZM37.5323 70.7028L42.9225 72.6004C43.152 72.6827 43.3065 72.9067 43.3065 73.1613C43.3065 73.4158 43.152 73.6399 42.9239 73.7222L37.5323 75.6198V70.7028ZM34.6452 76.2097H14.4355V70.1129H34.6452V76.2097ZM2.8871 73.1613C2.8871 71.4801 4.18196 70.1129 5.77419 70.1129H11.5484V76.2097H5.77419C4.18196 76.2097 2.8871 74.8425 2.8871 73.1613ZM86.6129 91.4516H28.871V79.2581H36.3226L43.8391 76.6136C45.248 76.1167 46.1936 74.7297 46.1936 73.1613C46.1936 71.5929 45.2466 70.2074 43.8377 69.709L36.3226 67.0645H28.871V7.62097C28.871 5.89863 28.3065 4.32566 27.3899 3.04839H82.2823C84.6699 3.04839 86.6129 5.09995 86.6129 7.62097V91.4516Z" fill="#00C950"/>
<path d="M63.5161 57.9194C55.5563 57.9194 49.0806 64.7569 49.0806 73.1613C49.0806 81.5657 55.5563 88.4032 63.5161 88.4032C71.4758 88.4032 77.9515 81.5657 77.9515 73.1613C77.9515 64.7569 71.4758 57.9194 63.5161 57.9194ZM72.4603 65.4611L67.4786 68.7488C66.4436 67.7123 65.0534 67.0645 63.5161 67.0645C62.4478 67.0645 61.4604 67.3922 60.6015 67.9287L56.447 63.5406C58.403 61.9341 60.8527 60.9677 63.5161 60.9677C67.1206 60.9677 70.3411 62.7221 72.4603 65.4611ZM63.5161 76.2097C61.9238 76.2097 60.629 74.8425 60.629 73.1613C60.629 71.4801 61.9238 70.1129 63.5161 70.1129C65.1083 70.1129 66.4031 71.4801 66.4031 73.1613C66.4031 74.8425 65.1083 76.2097 63.5161 76.2097ZM51.9677 73.1613C51.9677 70.3476 52.8829 67.7611 54.4044 65.6958L58.5589 70.0839C58.0522 70.9908 57.7404 72.0349 57.7404 73.1613C57.7404 75.4674 58.9732 77.4534 60.7647 78.4883L59.337 84.5165C55.0323 82.7439 51.9677 78.3283 51.9677 73.1613ZM63.5161 85.3548C63.0498 85.3548 62.5922 85.3167 62.1389 85.2603L63.5608 79.2535C66.7236 79.2261 69.2902 76.5069 69.2902 73.1613C69.2902 72.5227 69.1704 71.9191 68.9972 71.3399L73.9847 68.0476C74.6703 69.6053 75.0644 71.3338 75.0644 73.1613C75.0644 79.8845 69.8835 85.3548 63.5161 85.3548Z" fill="#00C950"/>
</svg>
