<svg width="90" height="95" viewBox="0 0 90 95" fill="none" xmlns="http://www.w3.org/2000/svg">
<path d="M82.2823 0H21.6532C17.6734 0 14.4355 3.41877 14.4355 7.62097V48.7742H25.9839V67.0645H5.77419C2.58973 67.0645 0 69.7989 0 73.1613C0 76.5237 2.58973 79.2581 5.77419 79.2581H25.9839V94.5H89.5V7.62097C89.5 3.41877 86.2621 0 82.2823 0ZM17.3226 45.7258V7.62097C17.3226 5.09995 19.2656 3.04839 21.6532 3.04839C24.0409 3.04839 25.9839 5.09995 25.9839 7.62097V45.7258H17.3226ZM37.5323 70.7028L42.9225 72.6004C43.152 72.6827 43.3065 72.9067 43.3065 73.1613C43.3065 73.4158 43.152 73.6399 42.9239 73.7222L37.5323 75.6198V70.7028ZM34.6452 76.2097H14.4355V70.1129H34.6452V76.2097ZM2.8871 73.1613C2.8871 71.4801 4.18196 70.1129 5.77419 70.1129H11.5484V76.2097H5.77419C4.18196 76.2097 2.8871 74.8425 2.8871 73.1613ZM86.6129 91.4516H28.871V79.2581H36.3226L43.8391 76.6136C45.248 76.1167 46.1936 74.7297 46.1936 73.1613C46.1936 71.5929 45.2466 70.2074 43.8377 69.709L36.3226 67.0645H28.871V7.62097C28.871 5.89863 28.3065 4.32566 27.3899 3.04839H82.2823C84.6699 3.04839 86.6129 5.09995 86.6129 7.62097V91.4516Z" fill="#00C950"/>
</svg>
